<?xml version="1.0" encoding="UTF-8" standalone="no"?>
<!-- Created with Inkscape (http://www.inkscape.org/) -->

<svg
   version="1.1"
   id="svg263"
   width="188.56"
   height="64.239998"
   viewBox="0 0 188.56 64.239998"
   sodipodi:docname="uzh_logo_d_pos.eps"
   xmlns:inkscape="http://www.inkscape.org/namespaces/inkscape"
   xmlns:sodipodi="http://sodipodi.sourceforge.net/DTD/sodipodi-0.dtd"
   xmlns="http://www.w3.org/2000/svg"
   xmlns:svg="http://www.w3.org/2000/svg">
  <defs
     id="defs267" />
  <sodipodi:namedview
     id="namedview265"
     pagecolor="#ffffff"
     bordercolor="#000000"
     borderopacity="0.25"
     inkscape:showpageshadow="2"
     inkscape:pageopacity="0.0"
     inkscape:pagecheckerboard="0"
     inkscape:deskcolor="#d1d1d1"
     showgrid="false" />
  <g
     id="g271"
     inkscape:groupmode="layer"
     inkscape:label="Page 1"
     transform="matrix(1.3333333,0,0,-1.3333333,0,64.24)">
    <g
       id="g273"
       transform="scale(0.1)">
      <path
         d="m 315.613,135.594 v 231.523 h -4.968 v 25.528 c -0.055,3.179 -0.508,5.187 -1.915,8.445 -0.355,0.82 -0.871,1.723 -1.445,2.621 v 9.219 c 0,0 -0.012,7.234 -3,12.683 -3.25,5.95 -9.558,9.2 -12.629,10.496 -0.711,0.332 -1.172,0.481 -1.261,0.5 l -0.512,0.176 -0.637,-0.176 c -0.305,-0.086 -5.297,-1.668 -10.043,-8.129 -4.301,-5.933 -4.453,-13.523 -4.484,-15.628 0,-0.344 0.008,-0.543 0.008,-0.567 v -8.496 c -0.571,-0.84 -1.372,-2.113 -2.247,-3.988 -1.32,-3.238 -1.41,-6.238 -1.457,-8.043 v -24.641 h -4.992 v -84.523 l -13.683,13.679 v 24.125 l -4.645,15.567 -6.785,53.414 v -0.004 l -5.012,-51.172 -4.656,-17.816 V 298.035 L 217.695,284.48 v 82.637 h -4.968 l 0.003,25.528 c -0.054,3.179 -0.507,5.187 -1.917,8.445 -0.352,0.82 -0.872,1.723 -1.442,2.621 v 9.219 c 0,0 -0.016,7.234 -3,12.683 -3.258,5.95 -9.562,9.2 -12.633,10.496 -0.711,0.332 -1.172,0.481 -1.258,0.5 l -0.511,0.176 -0.629,-0.176 c -0.32,-0.086 -5.305,-1.668 -10.051,-8.129 -4.301,-5.933 -4.453,-13.523 -4.488,-15.628 0,-0.344 0.008,-0.543 0.008,-0.567 v -8.496 c -0.571,-0.84 -1.371,-2.113 -2.246,-3.988 -1.317,-3.238 -1.411,-6.238 -1.454,-8.043 v -24.641 h -4.996 V 135.594 H 46.4648 c -17.0195,31.328 -26.7187,67.207 -26.7187,105.383 0,61.074 24.7461,116.351 64.7695,156.386 40.0354,40.024 95.3124,64.774 156.3904,64.774 61.082,0 116.36,-24.75 156.391,-64.774 40.023,-40.035 64.773,-95.312 64.777,-156.386 -0.004,-38.176 -9.703,-74.055 -26.722,-105.383 z m -6.058,52.472 v -52.472 h -39.422 v 52.472 z m 0,34.422 v -31.023 h -39.422 v 31.023 z m 0,50.95 v -47.551 h -39.422 v 47.551 z m -12.157,23.32 v -19.922 h -15.062 v 19.945 c 0,3.84 1.402,6.953 3.641,9.094 1.109,1.059 2.421,1.844 3.882,2.414 h 0.012 c 1.484,-0.574 2.77,-1.355 3.879,-2.41 2.242,-2.145 3.645,-5.254 3.648,-9.098 z m 12.157,20.023 v -39.945 h -8.758 v 19.945 c 0.004,4.684 -1.758,8.754 -4.703,11.559 -1.574,1.504 -3.442,2.617 -5.496,3.336 -0.094,0.043 -0.739,0.238 -0.739,0.238 0,0 -0.613,-0.199 -0.679,-0.226 -2.067,-0.711 -3.965,-1.844 -5.551,-3.352 -2.945,-2.801 -4.703,-6.883 -4.699,-11.555 v -19.945 h -8.797 v 39.945 z m -12.934,17.535 V 320.18 h -13.508 l -0.004,14.136 c 0.051,5.465 2.735,9.254 6.75,11.024 4.02,-1.766 6.711,-5.555 6.762,-11.024 z m 12.934,17.274 v -31.41 h -9.535 v 14.136 c 0.003,4.692 -1.735,8.657 -4.59,11.375 -1.543,1.473 -3.391,2.579 -5.43,3.282 -0.129,0.047 -0.117,0.05 -0.117,0.05 0,0 -0.024,-0.003 -0.153,-0.05 -2.039,-0.703 -3.89,-1.809 -5.429,-3.282 -2.856,-2.718 -4.594,-6.687 -4.59,-11.375 V 320.18 h -9.578 v 31.41 z m 0,11.457 v -8.059 h -39.422 v 8.059 z m -29.196,35.34 c 0.914,-2.227 1.067,-4.637 1.09,-6.348 l 0.035,-24.922 h -6.347 v 24.953 c 0.039,1.68 0.218,3.965 1.172,6.297 0.699,1.5 1.367,2.746 1.945,3.594 0.726,-1.059 1.41,-2.078 2.105,-3.574 z m 14.371,-6.508 -0.007,-24.762 h -9.727 c -0.008,6.906 -0.012,24.766 -0.012,24.781 0.079,1.622 0.204,3.864 1.371,6.168 1.227,2.422 3.54,3.864 3.54,3.864 h 0.007 c 0,0 2.192,-1.442 3.422,-3.864 1.227,-2.425 1.34,-4.527 1.406,-6.187 z m 6.735,10.059 c 0.609,-0.848 1.246,-2.094 1.941,-3.594 0.953,-2.34 1.207,-4.617 1.242,-6.297 v -24.93 h -6.418 c 0,5.485 0,17.559 0,24.922 0.032,1.711 0.333,4.094 1.247,6.324 0.777,1.754 1.402,2.75 1.988,3.575 z m -22.457,12.386 c 0.172,2.785 0.926,8.047 3.621,11.641 2.051,2.789 4.082,4.445 5.562,5.402 0.688,0.446 1.235,0.723 1.633,0.906 0.403,-0.183 0.946,-0.46 1.629,-0.906 1.485,-0.957 3.52,-2.613 5.567,-5.402 2.699,-3.594 3.449,-8.856 3.621,-11.641 z m 21.668,-3.398 v -1.86 c -0.055,-0.375 -0.156,-0.933 -0.348,-1.449 -0.316,-0.851 -1.113,-2.199 -2.168,-3.847 -0.402,-0.657 -1.105,-1.743 -1.883,-3.313 -1.004,1.543 -1.851,2.559 -2.461,3.195 -0.664,0.703 -1.55,1.602 -2.273,2.457 -1.578,1.86 -1.66,2.977 -1.66,2.977 v -0.004 c 0,0 -0.047,-1.113 -1.625,-2.973 -0.731,-0.855 -1.613,-1.754 -2.281,-2.457 -0.61,-0.644 -1.469,-1.675 -2.497,-3.254 -0.792,1.614 -1.511,2.727 -1.921,3.399 -1.055,1.652 -1.848,3 -2.168,3.848 -0.309,0.816 -0.407,1.769 -0.414,1.847 v 1.434 z m -34.645,-222.86 v -52.472 h -50.367 v 52.472 z m -34.476,34.422 v -19.98 h 18.726 v 19.98 h 15.75 v -31.023 h -50.367 v 31.023 z m 34.476,25.793 v -22.394 h -15.75 v 5.605 c 0,5.164 -4.187,9.367 -9.363,9.367 -5.172,0 -9.363,-4.203 -9.363,-9.367 v -5.605 h -15.891 v 22.394 z m 0,25.157 v -19.211 h -50.367 v 19.211 z m -25.113,28.5 25.098,-25.102 H 215.82 Z m -5.254,18.578 3.965,16.953 1.633,28.351 0.965,-28.336 3.961,-16.968 z m 10.676,-4.075 v -14.156 l -5.422,5.418 -5.41,-5.406 v 14.144 z M 211.641,188.066 v -52.472 h -39.422 v 52.472 z m 0,34.422 v -31.023 h -39.422 v 31.023 z m 0,50.95 v -47.551 h -39.422 v 47.551 z m -12.161,23.32 v -19.922 h -15.066 v 19.945 c 0.004,3.84 1.406,6.953 3.645,9.094 1.113,1.059 2.421,1.844 3.882,2.414 h 0.016 c 1.481,-0.574 2.766,-1.355 3.871,-2.41 2.246,-2.145 3.645,-5.254 3.649,-9.098 z m 12.161,20.023 v -39.945 h -8.758 v 19.945 c 0,4.684 -1.762,8.754 -4.703,11.559 -1.575,1.504 -3.446,2.617 -5.5,3.336 -0.098,0.043 -0.742,0.238 -0.742,0.238 0,0 -0.61,-0.199 -0.672,-0.226 -2.067,-0.711 -3.965,-1.844 -5.551,-3.352 -2.945,-2.801 -4.707,-6.883 -4.699,-11.555 v -19.945 h -8.797 v 39.945 z m -12.942,17.535 V 320.18 h -13.5 l -0.004,14.136 c 0.047,5.465 2.735,9.254 6.746,11.024 4.02,-1.766 6.711,-5.555 6.758,-11.024 z m 12.942,17.274 v -31.41 h -9.539 v 14.136 c 0.007,4.692 -1.731,8.657 -4.59,11.375 -1.539,1.473 -3.387,2.579 -5.426,3.282 -0.129,0.047 -0.117,0.05 -0.117,0.05 0,0 -0.028,-0.003 -0.153,-0.05 -2.043,-0.703 -3.89,-1.809 -5.433,-3.282 -2.86,-2.718 -4.598,-6.687 -4.586,-11.375 V 320.18 h -9.578 v 31.41 z m 0,11.457 v -8.059 h -39.422 v 8.059 z m -29.196,35.34 c 0.914,-2.227 1.067,-4.637 1.09,-6.348 l 0.028,-24.922 h -6.336 l -0.004,24.953 c 0.035,1.68 0.218,3.965 1.168,6.297 0.703,1.5 1.371,2.746 1.945,3.594 0.727,-1.059 1.41,-2.078 2.109,-3.574 z m 14.371,-6.508 -0.007,-24.762 h -9.731 c -0.004,6.906 -0.012,24.766 -0.012,24.781 0.082,1.622 0.204,3.864 1.372,6.168 1.23,2.422 3.539,3.864 3.539,3.864 h 0.011 c 0,0 2.192,-1.442 3.418,-3.864 1.231,-2.425 1.34,-4.527 1.41,-6.187 z m 6.731,10.059 c 0.613,-0.848 1.25,-2.094 1.945,-3.594 0.953,-2.34 1.207,-4.617 1.242,-6.297 v -24.93 h -6.421 c 0.003,5.485 0.003,17.559 0.003,24.922 0.028,1.711 0.329,4.094 1.243,6.324 0.781,1.754 1.406,2.75 1.988,3.575 z m -22.453,12.386 c 0.168,2.785 0.922,8.047 3.617,11.641 2.051,2.789 4.082,4.445 5.566,5.402 0.684,0.446 1.231,0.723 1.625,0.906 0.403,-0.183 0.95,-0.46 1.633,-0.906 1.485,-0.957 3.516,-2.613 5.567,-5.402 2.695,-3.594 3.453,-8.856 3.625,-11.641 z m 21.66,-3.398 v -1.86 c -0.051,-0.375 -0.152,-0.933 -0.344,-1.449 -0.32,-0.851 -1.109,-2.199 -2.168,-3.847 -0.398,-0.657 -1.101,-1.743 -1.879,-3.313 -1.008,1.543 -1.855,2.559 -2.461,3.195 -0.668,0.703 -1.55,1.602 -2.281,2.457 -1.57,1.86 -1.652,2.977 -1.652,2.977 v -0.004 c 0,0 -0.055,-1.113 -1.625,-2.973 -0.731,-0.855 -1.614,-1.754 -2.281,-2.457 -0.614,-0.644 -1.469,-1.675 -2.5,-3.254 -0.797,1.614 -1.516,2.727 -1.918,3.399 -1.055,1.652 -1.852,3 -2.168,3.848 -0.305,0.808 -0.407,1.746 -0.418,1.835 v 1.446 z M 430.27,126.672 H 51.5508 c -1.1016,1.812 -2.1641,3.66 -3.2188,5.516 h 385.152 c -1.05,-1.856 -2.117,-3.704 -3.214,-5.516 z m -14.86,-21.586 c -2.566,5.41 -8.074,9.16 -14.465,9.16 -8.836,0 -16.004,-7.168 -16.004,-16.0155 v -5.1641 h -5.793 v 5.1641 c 0,8.8475 -7.168,16.0155 -16.007,16.0155 -8.84,0 -16.008,-7.168 -16.008,-16.0155 v -5.1641 h -5.793 v 5.1641 c 0,8.8475 -7.168,16.0155 -16.008,16.0155 -8.844,0 -16.008,-7.168 -16.008,-16.0155 v -5.1641 h -5.793 v 5.1641 c 0,8.8475 -7.168,16.0155 -16.008,16.0155 -8.839,0 -16.007,-7.168 -16.007,-16.0155 v -5.1641 h -5.973 c -1.816,11.9806 -12.137,21.1796 -24.625,21.1796 -12.488,0 -22.805,-9.199 -24.625,-21.1796 h -6.148 v 5.1641 c 0,8.8475 -7.165,16.0155 -16.004,16.0155 -8.844,0 -16.012,-7.168 -16.012,-16.0155 v -5.1641 h -5.793 v 5.1641 c 0,8.8475 -7.164,16.0155 -16.008,16.0155 -8.84,0 -16.008,-7.168 -16.008,-16.0155 v -5.1641 h -5.793 v 5.1641 c 0,8.8475 -7.168,16.0155 -16.007,16.0155 -8.84,0 -16.008,-7.168 -16.008,-16.0155 v -5.1641 h -5.7932 v 5.1641 c 0,8.8475 -7.168,16.0155 -16.004,16.0155 -6.3398,0 -11.8085,-3.691 -14.4062,-9.031 -3.9023,5.008 -7.5781,10.195 -11.043,15.539 H 426.555 c -3.496,-5.383 -7.207,-10.617 -11.145,-15.668 z M 397.297,84.5898 C 362.793,50.0859 316.965,26.9531 265.855,21.2188 v 25.2929 h 9.34 c 17.321,0 29.84,1.4492 29.84,1.4492 0,0 -12.887,1.9493 -29.84,1.9493 h -9.34 v 37.207 h 11.165 v 0.0703 0 11.043 c 0,6.3865 5.183,11.5665 11.57,11.5665 6.387,0 11.566,-5.18 11.566,-11.5665 V 87.1172 h 14.672 v 0.0703 h 0.008 v 11.043 c 0,6.3865 5.176,11.5665 11.559,11.5665 6.386,0 11.566,-5.18 11.566,-11.5665 V 87.1172 h 14.68 v 0.0703 0 11.043 c 0,6.3865 5.175,11.5665 11.57,11.5665 6.387,0 11.559,-5.18 11.559,-11.5665 V 87.1172 h 14.679 v 0.0703 0 11.043 c 0,6.3865 5.176,11.5665 11.567,11.5665 5.062,0 9.363,-3.266 10.922,-7.805 -4.911,-6.0662 -10.125,-11.8865 -15.641,-17.4022 z M 254.141,66.4922 c -1.551,-5.8594 -6.875,-10.1836 -13.223,-10.1836 -6.348,0 -11.664,4.3242 -13.219,10.1836 z m -16.989,11.5625 c 1.055,-2.9258 3.84,-5.0391 7.141,-5.0391 3.566,0 6.547,2.4727 7.367,5.8008 2.207,-0.1055 4.418,-0.75 6.61,-2.5976 2.113,-1.7657 2.937,-4.8125 3.23,-6.3165 h -41.164 c 0.293,1.504 1.117,4.5508 3.234,6.3165 4.504,3.789 9.106,2.5507 13.582,1.8359 z m -5.355,31.4573 4.48,-6.407 4.582,8.692 4.575,-8.692 4.476,6.407 -1.773,-11.1253 h -14.563 z m 2.113,-14.5315 h 14.016 c 0.535,-1.2891 1.875,-4.543 2.699,-6.4258 0.57,-1.3086 1.301,-2.7149 0.41,-4.1602 -1.062,-1.7109 -2.445,-1.4648 -3.422,-1.3867 -0.05,0.0078 -0.113,0 -0.168,0.0078 -0.976,-2.6758 -3.519,-4.5898 -6.527,-4.5898 -3.008,0 -5.547,1.914 -6.527,4.5898 -0.055,-0.0078 -0.118,0 -0.168,-0.0078 -0.977,-0.0781 -2.36,-0.3242 -3.422,1.3867 -0.891,1.4453 -0.16,2.8516 0.41,4.1602 0.824,1.8828 2.164,5.1367 2.699,6.4258 z m 24.028,-74.5196 c -5.618,-0.4336 -11.297,-0.6562 -17.032,-0.6562 -5.718,0 -11.394,0.2226 -17.011,0.6445 l -4.176,26.0625 h 4.82 c -1.199,2.8633 -3.289,7.8633 -4.09,9.8946 -1.301,3.2617 -0.332,5.4179 1.836,6.2578 2.11,0.8203 4.492,-0.3399 5.238,-3.125 l 2.118,-7.918 h 3.074 l -0.004,-5.1094 h 0.004 l -0.004,-1.0156 h -7.277 v -3.3984 h 10.664 l 0.015,4.414 h 12.93 l -0.012,5.1094 h 3.098 l 2.129,7.918 c 0.754,2.7851 3.152,3.9453 5.277,3.125 2.184,-0.8399 3.153,-2.9961 1.852,-6.2578 -0.352,-0.8907 -0.922,-2.3555 -1.543,-3.9454 l -2.879,-6.9648 h -7.777 v -3.3984 h 10.05 l 1.825,4.414 h 1.054 z M 215.98,49.9102 H 205.781 V 46.5117 H 215.98 V 21.2109 c -51.117,5.7305 -96.957,28.875 -131.4644,63.3789 -4.9492,4.9493 -9.6679,10.1368 -14.1328,15.5392 0.9063,5.484 5.6524,9.668 11.3945,9.668 6.3868,0 11.5625,-5.18 11.5625,-11.5665 V 87.1172 H 108.02 v 0.0703 h 0.003 v 11.043 c 0,6.3865 5.176,11.5665 11.563,11.5665 6.387,0 11.566,-5.18 11.566,-11.5665 V 87.1172 h 14.676 v 0.0703 0 11.043 c 0,6.3865 5.18,11.5665 11.567,11.5665 6.382,0 11.566,-5.18 11.566,-11.5665 V 87.1172 h 14.676 v 0.0703 0 11.043 c 0,6.3865 5.179,11.5665 11.566,11.5665 6.391,0 11.567,-5.18 11.567,-11.5665 V 87.1172 h 9.21 z m 24.926,416.2228 c -124.351,0 -225.1599,-100.805 -225.1599,-225.156 0,-124.356 100.8089,-225.1684 225.1599,-225.1684 124.36,0 225.157,100.8124 225.164,225.1684 -0.007,124.351 -100.804,225.156 -225.164,225.156 z m 3.649,-376.6408 h 1.937 v 3.3984 h -4.621 v -7.5312 h 2.692 z M 74.7695,407.051 C 32.2461,364.52 5.95313,305.801 5.95313,240.906 v 0 c 0,-64.89 26.29297,-123.609 68.81637,-166.1404 v 0 C 117.301,32.2461 176.016,5.95703 240.906,5.95703 v 0 c 64.895,0 123.614,26.28907 166.145,68.80857 v 0 c 42.523,42.5314 68.816,101.2504 68.816,166.1404 v 0 c 0,64.895 -26.293,123.614 -68.816,166.145 v 0 c -42.531,42.523 -101.25,68.816 -166.145,68.816 v 0 c -64.89,0 -123.605,-26.293 -166.1365,-68.816 z M 0,240.906 c 0,133.055 107.859,240.91 240.906,240.91 v 0 c 133.055,0 240.91,-107.855 240.91,-240.91 v 0 C 481.816,107.859 373.961,0 240.906,0 V 0 C 107.859,0 0,107.859 0,240.906 Z m 1149.22,-75.371 v 19.113 h -16.8 v -19.113 h -10.6 v 45.899 h 10.6 v -17.618 h 16.8 v 17.618 h 10.6 v -45.899 z m -67.59,0 v 8.301 l 14.76,24.68 c 0.74,1.218 1.56,2.382 2.44,3.535 -1.21,-0.071 -2.79,-0.137 -7.21,-0.137 h -9.51 v 9.52 h 29.71 v -8.633 l -15.57,-25.02 c -0.55,-0.886 -1.08,-1.64 -1.77,-2.586 0.89,0.137 3.47,0.137 8.91,0.137 h 8.7 v -9.797 z m -28.29,-0.879 c -14.61,0 -18.14,7.883 -18.14,17.063 v 29.715 h 10.6 v -29.098 c 0,-5.375 1.7,-8.773 8.22,-8.773 5.99,0 8.3,2.523 8.3,9.386 v 28.485 h 10.47 v -27.879 c 0,-12.922 -7.27,-18.899 -19.45,-18.899 z M 994.773,79.7969 v 57.3011 c 0,9.375 -2.515,14.961 -10.984,14.961 -11.719,0 -20.906,-13.34 -20.906,-29.012 V 79.7969 h -23.07 V 211.348 h 23.07 v -38.387 c 0,-5.414 -0.363,-12.973 -1.621,-18.207 l 0.359,-0.176 c 5.227,10.09 15.496,16.758 29.375,16.758 20.174,0 26.674,-12.977 26.674,-28.652 V 79.7969 Z m -97.488,-1.625 c -24.863,0 -40.359,12.9687 -40.359,43.4301 0,27.929 14.597,49.375 46.316,49.375 6.121,0 12.61,-0.899 18.379,-2.52 l -2.344,-20.012 c -4.863,1.809 -10.449,3.254 -16.218,3.254 -14.602,0 -21.985,-10.812 -21.985,-27.754 0,-15.312 5.946,-25.7731 21.262,-25.7731 6.121,0 12.793,1.2695 17.664,3.7891 l 1.797,-19.6485 c -6.121,-2.3437 -14.961,-4.1406 -24.512,-4.1406 z m -80.281,1.625 v 89.5581 h 23.062 V 79.7969 Z m 11.531,101.0901 c -7.93,0 -14.238,6.308 -14.238,14.062 0,7.559 6.308,13.867 14.238,13.867 7.93,0 14.414,-6.121 14.414,-13.867 0,-7.754 -6.484,-14.062 -14.414,-14.062 z m -29.277,-32.254 c -16.57,3.426 -24.863,-7.395 -24.863,-32.254 V 79.7969 h -23.067 v 89.5581 h 21.809 c 0,-4.503 -0.539,-11.71 -1.621,-18.019 h 0.359 c 4.316,11.348 12.969,21.262 28.469,20 z m -94.594,35.496 c -6.851,0 -12.437,5.586 -12.437,12.441 0,7.024 5.586,12.434 12.437,12.434 6.844,0 12.43,-5.41 12.43,-12.434 0,-6.855 -5.586,-12.441 -12.43,-12.441 z m -36.406,0 c -6.848,0 -12.434,5.586 -12.434,12.441 0,7.024 5.586,12.434 12.434,12.434 6.847,0 12.433,-5.41 12.433,-12.434 0,-6.855 -5.586,-12.441 -12.433,-12.441 z M 704.844,79.7969 c 0,4.1367 0.176,11.1679 1.078,15.8554 l -0.18,0.1758 c -5.406,-10.625 -15.676,-18.0156 -30.453,-18.0156 -20.187,0 -26.672,12.9766 -26.672,28.6525 v 62.89 h 22.887 v -57.304 c 0,-9.367 2.519,-14.9612 11.172,-14.9612 11.715,0 20.722,13.3402 20.722,29.0122 v 43.253 h 23.067 V 79.7969 Z m -155.293,0 V 97.8125 L 593.34,169.18 c 2.519,4.14 5.043,7.742 7.93,11.531 -4.329,-0.184 -10.094,-0.359 -22.168,-0.359 h -28.11 v 21.082 h 78.571 v -18.739 l -46.317,-73.164 c -1.801,-2.883 -3.422,-5.586 -5.578,-8.476 3.055,0.359 11.348,0.359 26.309,0.359 h 26.304 V 79.7969 Z M 1395.5,268.395 c -19.83,0 -26.13,7.207 -26.13,28.109 v 45.41 h -15.32 v 17.84 h 15.32 v 27.574 l 23.06,6.129 v -33.703 h 21.81 v -17.84 h -21.81 v -39.281 c 0,-11.535 2.71,-14.778 10.64,-14.778 3.79,0 7.93,0.54 11.17,1.442 v -18.559 c -5.77,-1.441 -12.43,-2.343 -18.74,-2.343 z M 1322,374.531 c -6.84,0 -12.43,5.59 -12.43,12.438 0,7.023 5.59,12.433 12.43,12.433 6.85,0 12.44,-5.41 12.44,-12.433 0,-6.848 -5.59,-12.438 -12.44,-12.438 z m -6.48,-64.691 c -24.33,0 -29.74,-7.027 -29.74,-14.235 0,-5.765 3.97,-9.55 10.64,-9.55 11.34,0 19.1,10.808 19.1,21.621 z m -29.91,64.691 c -6.86,0 -12.44,5.59 -12.44,12.438 0,7.023 5.58,12.433 12.44,12.433 6.84,0 12.43,-5.41 12.43,-12.433 0,-6.848 -5.59,-12.438 -12.43,-12.438 z m 31.7,-104.336 c 0,5.227 0.19,10.45 0.91,15.137 l -0.18,0.18 c -4.33,-10.09 -15.32,-17.117 -28.66,-17.117 -16.21,0 -25.58,9.187 -25.58,23.609 0,21.437 21.26,32.793 51.72,32.793 v 4.867 c 0,9.367 -4.51,14.231 -17.48,14.231 -8.11,0 -18.93,-2.7 -26.5,-7.024 l -1.98,19.281 c 9.01,3.243 20.55,5.586 32.08,5.586 28.84,0 36.94,-11.715 36.94,-31.175 v -37.301 c 0,-7.207 0.18,-15.68 0.54,-23.067 z m -88.8,-1.8 c -19.83,0 -26.14,7.207 -26.14,28.109 v 45.41 h -15.31 v 17.84 h 15.31 v 27.574 l 23.07,6.129 v -33.703 h 21.81 v -17.84 h -21.81 v -39.281 c 0,-11.535 2.7,-14.778 10.63,-14.778 3.78,0 7.93,0.54 11.18,1.442 v -18.559 c -5.78,-1.441 -12.44,-2.343 -18.74,-2.343 z m -81.43,1.8 v 89.559 h 23.07 v -89.559 z m 11.53,101.094 c -7.93,0 -14.23,6.309 -14.23,14.059 0,7.566 6.3,13.875 14.23,13.875 7.93,0 14.42,-6.129 14.42,-13.875 0,-7.75 -6.49,-14.059 -14.42,-14.059 z m -71.18,-102.894 c -6.48,0 -12.98,0.714 -18.74,1.621 l 0.55,18.918 c 5.57,-1.438 12.42,-2.704 19.28,-2.704 8.82,0 14.59,3.61 14.59,9.555 0,15.856 -36.22,6.848 -36.22,37.301 0,15.68 12.8,28.652 38.02,28.652 5.23,0 11,-0.718 16.4,-1.621 l -0.71,-18.203 c -5.05,1.445 -11,2.344 -16.59,2.344 -9.01,0 -13.33,-3.606 -13.33,-9.192 0,-14.597 36.76,-8.109 36.76,-37.121 0,-17.664 -15.5,-29.55 -40.01,-29.55 z m -31.53,70.636 c -16.58,3.43 -24.86,-7.386 -24.86,-32.254 v -36.582 h -23.07 v 89.559 h 21.8 c 0,-4.5 -0.54,-11.711 -1.63,-18.016 h 0.37 c 4.32,11.352 12.97,21.258 28.47,20 z m -105.595,5.77 c -9.551,0 -16.223,-7.028 -17.485,-17.844 h 32.981 c 0.359,11.176 -5.762,17.844 -15.496,17.844 z m 37.664,-33.524 h -55.508 c -0.176,-16.757 8.105,-24.863 24.687,-24.863 8.829,0 18.379,1.981 26.133,5.59 l 2.157,-17.844 c -9.547,-3.785 -20.895,-5.765 -32.071,-5.765 -28.472,0 -44.324,14.234 -44.324,45.769 0,27.387 15.137,47.574 41.98,47.574 26.125,0 37.668,-17.843 37.668,-40.004 0,-3.062 -0.183,-6.668 -0.722,-10.457 z m -115.86,-41.082 h -23.425 l -33.157,89.559 h 25.227 l 14.234,-40.359 c 2.16,-6.133 4.328,-13.34 5.95,-19.825 h 0.363 c 1.433,6.121 3.242,12.973 5.398,19.102 l 14.414,41.082 h 24.512 z m -92.629,0 v 89.559 h 23.071 v -89.559 z m 11.536,101.094 c -7.93,0 -14.239,6.309 -14.239,14.059 0,7.566 6.309,13.875 14.239,13.875 7.929,0 14.414,-6.129 14.414,-13.875 0,-7.75 -6.485,-14.059 -14.414,-14.059 z M 731.555,270.195 V 327.5 c 0,9.371 -2.532,14.961 -10.996,14.961 -11.711,0 -20.903,-13.34 -20.903,-29.02 v -43.246 h -23.062 v 89.559 h 21.804 c 0,-4.145 -0.363,-11.168 -1.265,-15.859 l 0.18,-0.176 c 5.406,10.633 15.863,18.019 30.46,18.019 20.176,0 26.661,-12.972 26.661,-28.652 V 270.195 Z M 601.09,268.211 c -38.387,0 -47.031,20.906 -47.031,44.152 v 79.473 h 23.421 v -78.031 c 0,-15.321 5.047,-26.129 25.231,-26.129 18.019,0 25.59,7.566 25.59,28.289 v 75.871 h 23.246 V 317.41 c 0,-33.34 -18.383,-49.199 -50.457,-49.199 z M 289.855,447.723 c -2.332,0 -4.218,-1.887 -4.218,-4.219 0,-2.332 1.886,-4.219 4.218,-4.219 2.333,0 4.223,1.887 4.223,4.219 0,2.332 -1.89,4.219 -4.223,4.219 z m 3.313,-283.114 v 10 c 0,1.864 -1.512,3.379 -3.379,3.379 -1.867,0 -3.383,-1.515 -3.383,-3.379 v -10 z m -1.23,37.899 v 11.262 c 0,1.16 -0.938,2.097 -2.094,2.097 -1.153,0 -2.09,-0.937 -2.09,-2.097 v -11.262 z m 0,33.922 v 11.269 c 0,1.156 -0.938,2.09 -2.094,2.09 -1.153,0 -2.09,-0.934 -2.09,-2.09 V 236.43 Z m 1.816,89.906 v 8.684 c -0.024,3.152 -1.574,5.335 -3.891,6.359 -2.312,-1.027 -3.867,-3.211 -3.89,-6.359 l 0.004,-8.684 z m 0,-43.207 v 13.449 c -0.024,3.149 -1.574,5.332 -3.891,6.352 -2.312,-1.02 -3.867,-3.203 -3.89,-6.36 l 0.004,-13.441 z M 191.938,447.723 c -2.329,0 -4.223,-1.887 -4.223,-4.219 0,-2.332 1.894,-4.219 4.223,-4.219 2.332,0 4.218,1.887 4.218,4.219 0,2.332 -1.886,4.219 -4.218,4.219 z m 3.316,-283.114 v 10 c 0,1.864 -1.516,3.379 -3.383,3.379 -1.867,0 -3.379,-1.515 -3.379,-3.379 v -10 z m -1.234,37.899 v 11.262 c 0,1.16 -0.934,2.097 -2.09,2.097 -1.16,0 -2.09,-0.937 -2.09,-2.097 v -11.262 z m 0,33.922 v 11.269 c 0,1.156 -0.934,2.09 -2.09,2.09 -1.16,0 -2.09,-0.934 -2.09,-2.09 V 236.43 Z m 1.82,89.906 v 8.684 c -0.027,3.152 -1.578,5.335 -3.899,6.359 -2.312,-1.027 -3.859,-3.211 -3.882,-6.359 v -8.684 z m 0,-43.207 v 13.449 c -0.027,3.149 -1.578,5.332 -3.899,6.352 -2.312,-1.02 -3.859,-3.203 -3.882,-6.36 v -13.441 z m 2.558,-230.7267 c -2.328,0 -4.218,-1.8867 -4.218,-4.2187 0,-2.3359 1.89,-4.2188 4.218,-4.2188 2.332,0 4.223,1.8829 4.223,4.2188 0,2.332 -1.891,4.2187 -4.223,4.2187 z m 40.395,230.8827 h 4.254 v 9.145 h -4.254 z m 2.125,117.77 c -2.328,0 -4.219,-1.891 -4.219,-4.219 0,-2.336 1.891,-4.219 4.219,-4.219 2.336,0 4.223,1.883 4.223,4.219 0,2.328 -1.887,4.219 -4.223,4.219 z m 14.91,-238.977 v 11.887 c 0,2.215 -1.801,4.023 -4.019,4.023 -2.231,0 -4.032,-1.808 -4.032,-4.023 v -11.887 z m -21.769,0 v 11.887 c 0,2.215 -1.801,4.023 -4.024,4.023 -2.222,0 -4.027,-1.808 -4.027,-4.023 v -11.887 z m 125.89,-97.996 c -0.301,0 -0.769,0.0196 -1.043,0.0664 -0.554,0.1094 -0.593,0.2657 -0.687,0.8008 -0.098,0.8399 -0.098,2.461 -0.098,4.4063 v 3.5742 c 0,3.0742 0,3.6406 0.047,4.2773 0.074,0.7032 0.145,0.8282 0.645,0.9375 0.242,0.0469 0.386,0.0664 0.589,0.0664 0.215,0 0.504,0.1172 0.504,0.4102 -0.047,0.332 -0.343,0.332 -0.597,0.3437 -0.813,0 -2.176,-0.0507 -2.692,-0.0507 -0.594,0 -2.015,0.0507 -2.808,0.0507 -0.325,-0.0117 -0.618,0 -0.668,-0.3437 0,-0.293 0.289,-0.4102 0.504,-0.4102 0.246,0 0.496,-0.0195 0.707,-0.0859 0.406,-0.1484 0.531,-0.2539 0.593,-0.918 0.028,-0.6367 0.028,-1.2031 0.028,-4.2773 v -3.5742 c 0,-1.9453 0,-3.5664 -0.094,-4.3867 -0.094,-0.5938 -0.152,-0.7422 -0.488,-0.8282 -0.176,-0.039 -0.403,-0.0586 -0.703,-0.0586 -0.309,0 -0.504,-0.1953 -0.504,-0.3906 0.007,-0.3047 0.308,-0.3828 0.578,-0.3828 0.84,0 2.269,0.0703 2.738,0.0703 0.563,0 1.996,-0.0703 3.383,-0.0703 0.246,0 0.547,0.0703 0.57,0.3828 0,0.2227 -0.215,0.3906 -0.504,0.3906 z m -12.707,0 c -0.301,0 -0.777,0.0196 -1.043,0.0664 -0.554,0.1094 -0.597,0.2657 -0.691,0.8008 -0.098,0.8399 -0.098,2.461 -0.098,4.4063 v 3.5742 c 0,3.0742 0,3.6406 0.051,4.2773 0.07,0.7032 0.141,0.8282 0.644,0.9375 0.239,0.0469 0.387,0.0664 0.59,0.0664 0.215,0 0.5,0.1172 0.5,0.4102 -0.047,0.332 -0.34,0.332 -0.593,0.3437 -0.817,0 -2.176,-0.0507 -2.696,-0.0507 -0.586,0 -2.015,0.0507 -2.808,0.0507 -0.317,-0.0117 -0.614,0 -0.668,-0.3437 0,-0.293 0.289,-0.4102 0.504,-0.4102 0.25,0 0.496,-0.0195 0.711,-0.0859 0.402,-0.1484 0.523,-0.2539 0.589,-0.918 0.032,-0.6367 0.032,-1.2031 0.032,-4.2773 v -3.5742 c 0,-1.9453 -0.004,-3.5664 -0.098,-4.3867 -0.09,-0.5938 -0.148,-0.7422 -0.488,-0.8282 -0.176,-0.039 -0.403,-0.0586 -0.703,-0.0586 -0.309,0 -0.497,-0.1953 -0.497,-0.3906 0.008,-0.3047 0.301,-0.3828 0.571,-0.3828 0.84,0 2.269,0.0703 2.738,0.0703 0.563,0 1.996,-0.0703 3.379,-0.0703 0.254,0 0.551,0.0703 0.574,0.3828 0,0.2149 -0.207,0.3906 -0.5,0.3906 z m -12.711,0 c -0.297,0 -0.777,0.0196 -1.039,0.0664 -0.558,0.1094 -0.601,0.2657 -0.695,0.8008 -0.094,0.8399 -0.094,2.461 -0.094,4.4063 v 3.5742 c 0,3.0742 0,3.6406 0.047,4.2773 0.07,0.7032 0.145,0.8282 0.645,0.9375 0.238,0.0469 0.39,0.0664 0.589,0.0664 0.215,0 0.508,0.1172 0.508,0.4102 -0.051,0.332 -0.347,0.332 -0.605,0.3437 -0.813,0 -2.168,-0.0507 -2.688,-0.0507 -0.59,0 -2.019,0.0507 -2.808,0.0507 -0.321,-0.0117 -0.618,0 -0.676,-0.3437 0,-0.293 0.293,-0.4102 0.508,-0.4102 0.254,0 0.5,-0.0195 0.715,-0.0859 0.398,-0.1484 0.527,-0.2539 0.593,-0.918 0.024,-0.6367 0.024,-1.2031 0.024,-4.2773 v -3.5742 c 0,-1.9453 0,-3.5664 -0.098,-4.3867 -0.086,-0.5938 -0.144,-0.7422 -0.488,-0.8282 -0.168,-0.039 -0.399,-0.0586 -0.699,-0.0586 -0.309,0 -0.504,-0.1953 -0.504,-0.3906 0.011,-0.3047 0.308,-0.3828 0.578,-0.3828 0.84,0 2.269,0.0703 2.734,0.0703 0.563,0 1.996,-0.0703 3.387,-0.0703 0.246,0 0.551,0.0703 0.574,0.3828 0,0.2149 -0.215,0.3906 -0.508,0.3906 z m -10.941,0 c -0.176,0 -0.504,0.0196 -0.758,0.1055 -0.43,0.1367 -0.719,0.3242 -1.062,0.7539 -0.493,0.5938 -3.79,5.8125 -4.59,7.0313 l 3.402,4.6484 c 0.641,0.8867 1.035,1.3945 1.406,1.4844 0.278,0.0664 0.532,0.1054 0.723,0.1054 0.25,0 0.492,0.1368 0.504,0.3907 -0.024,0.3125 -0.324,0.3632 -0.555,0.3632 -0.789,0 -1.652,-0.0507 -2.047,-0.0507 -0.394,0 -1.375,0.0507 -2.191,0.0507 -0.293,0 -0.606,-0.0507 -0.617,-0.3632 0.008,-0.2813 0.254,-0.3907 0.425,-0.3907 0.165,0 0.442,0 0.614,-0.0586 0.183,-0.039 0.25,-0.1445 0.242,-0.1757 0.008,-0.1172 -0.063,-0.3907 -0.219,-0.6407 -0.32,-0.5312 -1.953,-2.9336 -2.676,-3.9961 -0.793,1.3086 -1.605,2.6446 -2.48,4.1797 -0.106,0.1836 -0.199,0.4571 -0.195,0.5078 0,0.0196 0.019,0.086 0.16,0.125 0.152,0.0391 0.355,0.0586 0.465,0.0586 0.211,0 0.488,0.0977 0.5,0.3907 -0.024,0.3125 -0.332,0.3632 -0.602,0.3632 -0.785,0 -2.082,-0.0507 -2.359,-0.0507 -0.992,0 -2.68,0.0507 -3.184,0.0507 -0.258,-0.0117 -0.558,-0.0117 -0.601,-0.3437 0,-0.2148 0.168,-0.4102 0.382,-0.4102 0.192,0 0.516,-0.039 0.832,-0.1367 0.692,-0.2226 1.079,-0.6054 1.594,-1.4023 l 3.629,-5.6563 -4.023,-5.4414 c -0.723,-0.9765 -1.012,-1.25 -1.575,-1.4023 -0.289,-0.0703 -0.589,-0.0899 -0.714,-0.0899 -0.247,-0.0117 -0.454,-0.1757 -0.457,-0.4101 0,-0.2461 0.246,-0.3633 0.472,-0.3633 h 0.363 c 0.348,0 1.368,0.0703 1.762,0.0703 0.52,0 1.891,-0.0703 2.024,-0.0703 h 0.379 c 0.273,0 0.582,0.0391 0.601,0.3633 -0.023,0.2539 -0.215,0.3906 -0.43,0.4101 -0.156,0 -0.316,0.0196 -0.453,0.0196 -0.133,0 -0.234,0.0781 -0.242,0.164 v 0.0313 c -0.004,0.1445 0.102,0.4179 0.285,0.7109 l 2.93,4.5313 c 0.918,-1.5039 2.008,-3.3203 3.164,-5.1953 0.043,-0.0665 0.051,-0.1172 0.051,-0.1329 0.004,-0.0312 -0.024,-0.039 -0.024,-0.039 -0.218,-0.0508 -0.41,-0.2071 -0.41,-0.4336 0.067,-0.3711 0.383,-0.3399 0.903,-0.3789 1.714,-0.0508 3.386,-0.0508 3.89,-0.0508 h 0.617 c 0.25,0 0.555,0.0703 0.578,0.3828 -0.007,0.2422 -0.222,0.3906 -0.433,0.3906 z m -17.777,0 c -0.176,0 -0.5,0.0196 -0.758,0.1055 -0.438,0.1367 -0.719,0.3242 -1.063,0.7539 -0.492,0.5938 -3.793,5.8125 -4.597,7.0313 l 3.41,4.6484 c 0.636,0.8867 1.035,1.3945 1.406,1.4844 0.277,0.0664 0.523,0.1054 0.723,0.1054 0.254,0 0.496,0.1368 0.496,0.3907 -0.008,0.3125 -0.325,0.3632 -0.547,0.3632 -0.789,0 -1.653,-0.0507 -2.051,-0.0507 -0.394,0 -1.379,0.0507 -2.187,0.0507 -0.293,0 -0.606,-0.0507 -0.625,-0.3632 0.007,-0.2813 0.261,-0.3907 0.429,-0.3907 0.164,0 0.442,0 0.614,-0.0586 0.187,-0.039 0.25,-0.1445 0.242,-0.1757 0.004,-0.1172 -0.059,-0.3907 -0.215,-0.6407 -0.324,-0.5312 -1.953,-2.9336 -2.676,-3.9961 -0.793,1.3165 -1.605,2.6446 -2.48,4.1797 -0.114,0.1836 -0.204,0.4571 -0.192,0.5078 0,0.0196 0.016,0.0782 0.156,0.125 0.153,0.0391 0.356,0.0586 0.457,0.0586 0.215,0 0.497,0.0977 0.504,0.3907 -0.019,0.3125 -0.328,0.3632 -0.597,0.3632 -0.789,0 -2.082,-0.0507 -2.356,-0.0507 -1,0 -2.683,0.0507 -3.191,0.0507 -0.254,-0.0117 -0.551,-0.0117 -0.598,-0.3437 0,-0.2148 0.164,-0.4102 0.379,-0.4102 0.195,0 0.52,-0.039 0.836,-0.1367 0.688,-0.2226 1.074,-0.6054 1.598,-1.4023 l 3.625,-5.6563 -4.028,-5.4414 c -0.718,-0.9765 -1.007,-1.25 -1.574,-1.4023 -0.289,-0.0703 -0.594,-0.0899 -0.715,-0.0899 -0.25,-0.0117 -0.453,-0.1757 -0.457,-0.4101 0,-0.2461 0.242,-0.3633 0.477,-0.3633 h 0.355 c 0.348,0 1.375,0.0703 1.766,0.0703 0.516,0 1.891,-0.0703 2.023,-0.0703 h 0.383 c 0.27,0 0.574,0.0391 0.602,0.3633 -0.028,0.2539 -0.215,0.3906 -0.438,0.4101 -0.148,0 -0.308,0.0196 -0.445,0.0196 -0.133,0 -0.234,0.0781 -0.242,0.164 0,0.0117 -0.004,0.0313 -0.004,0.0313 0,0.1445 0.097,0.4179 0.289,0.7109 l 2.926,4.5313 c 0.922,-1.5039 2.007,-3.3203 3.168,-5.1953 0.043,-0.0665 0.047,-0.1172 0.047,-0.1329 0.003,-0.0312 -0.024,-0.039 -0.024,-0.039 -0.215,-0.0508 -0.406,-0.2071 -0.406,-0.4336 0.062,-0.3711 0.383,-0.3516 0.902,-0.3789 1.715,-0.0508 3.387,-0.0508 3.891,-0.0508 h 0.613 c 0.254,0 0.551,0.0703 0.574,0.3828 -0.004,0.2422 -0.215,0.3906 -0.425,0.3906 z m -17.782,0 c -0.176,0 -0.504,0.0196 -0.758,0.1055 -0.425,0.1367 -0.718,0.3242 -1.058,0.7539 -0.492,0.5938 -3.793,5.8125 -4.594,7.0313 l 3.402,4.6484 c 0.641,0.8867 1.032,1.3945 1.407,1.4844 0.281,0.0664 0.535,0.1054 0.722,0.1054 0.25,0 0.493,0.1368 0.504,0.3907 -0.019,0.3125 -0.32,0.3632 -0.551,0.3632 -0.796,0 -1.656,-0.0507 -2.046,-0.0507 -0.403,0 -1.383,0.0507 -2.2,0.0507 -0.285,0 -0.597,-0.0507 -0.617,-0.3632 0.008,-0.2813 0.258,-0.3907 0.43,-0.3907 0.164,0 0.441,0 0.613,-0.0586 0.184,-0.039 0.246,-0.1445 0.246,-0.1757 0,-0.1172 -0.062,-0.3907 -0.218,-0.6407 -0.325,-0.5312 -1.958,-2.9336 -2.676,-3.9961 -0.793,1.3086 -1.61,2.6446 -2.485,4.1797 -0.105,0.1836 -0.199,0.4571 -0.191,0.5078 0,0.0196 0.019,0.086 0.16,0.125 0.145,0.0391 0.359,0.0586 0.457,0.0586 0.215,0 0.492,0.0977 0.504,0.3907 -0.019,0.3125 -0.332,0.3632 -0.602,0.3632 -0.789,0 -2.078,-0.0507 -2.359,-0.0507 -0.992,0 -2.68,0.0507 -3.187,0.0507 -0.254,-0.0117 -0.551,-0.0117 -0.594,-0.3437 0,-0.2148 0.16,-0.4102 0.379,-0.4102 0.191,0 0.511,-0.039 0.836,-0.1367 0.687,-0.2226 1.074,-0.6054 1.597,-1.4023 l 3.621,-5.6563 -4.023,-5.4414 c -0.723,-0.9765 -1.012,-1.25 -1.574,-1.4023 -0.285,-0.0703 -0.594,-0.0899 -0.719,-0.0899 -0.246,-0.0117 -0.449,-0.1757 -0.453,-0.4101 0,-0.2461 0.242,-0.3633 0.476,-0.3633 h 0.364 c 0.34,0 1.367,0.0703 1.758,0.0703 0.515,0 1.89,-0.0703 2.023,-0.0703 h 0.383 c 0.265,0 0.582,0.0391 0.594,0.3633 -0.02,0.2539 -0.207,0.3906 -0.43,0.4101 -0.152,0 -0.313,0.0196 -0.453,0.0196 -0.125,0 -0.231,0.0859 -0.235,0.164 -0.004,0.0117 -0.004,0.0313 -0.004,0.0313 -0.003,0.1445 0.098,0.4179 0.29,0.7109 l 2.925,4.5313 c 0.918,-1.5039 2.016,-3.3203 3.164,-5.1953 0.047,-0.0665 0.051,-0.1172 0.051,-0.1329 0.004,-0.039 -0.019,-0.039 -0.019,-0.039 -0.219,-0.0508 -0.411,-0.2071 -0.411,-0.4336 0.063,-0.3711 0.379,-0.3516 0.899,-0.3789 1.719,-0.0508 3.391,-0.0508 3.891,-0.0508 h 0.621 c 0.246,0 0.547,0.0703 0.578,0.3828 -0.012,0.2422 -0.227,0.3906 -0.438,0.3906 z m -80.961,3.3985 c -0.277,0.0078 -0.41,-0.2657 -0.429,-0.5469 -0.059,-0.332 -0.336,-0.8984 -0.672,-1.2695 -0.789,-0.8672 -1.731,-1.0157 -3.59,-1.0157 -2.727,0.0079 -6.348,2.2149 -6.356,6.9219 0,1.9649 0.372,3.8594 1.868,5.1406 0.918,0.7696 2.027,1.1016 3.847,1.1016 1.895,0 3.266,-0.5 3.926,-1.1406 0.488,-0.4922 0.738,-1.1758 0.758,-1.7696 0,-0.246 0.047,-0.5781 0.387,-0.5976 0.363,0.0312 0.433,0.3828 0.453,0.6641 0.023,0.4101 0.023,1.5351 0.074,2.1875 0.047,0.7148 0.09,0.9375 0.09,1.1328 0.019,0.207 -0.184,0.4023 -0.457,0.4023 -0.606,0.0781 -1.293,0.2227 -2.09,0.3399 -0.953,0.1171 -1.754,0.2148 -3.07,0.2148 -3.149,0 -5.207,-0.8281 -6.758,-2.1875 -2.047,-1.8359 -2.512,-4.2578 -2.512,-5.6719 0,-1.9844 0.563,-4.3359 2.68,-6.1054 1.949,-1.6407 4.422,-2.2344 7.301,-2.2344 1.371,0 2.968,0.1172 3.847,0.4687 0.371,0.125 0.567,0.3321 0.649,0.7032 0.226,0.7226 0.457,2.4531 0.461,2.7343 -0.004,0.2149 -0.094,0.4961 -0.407,0.5274 z m -16.777,0 c -0.281,0.0078 -0.41,-0.2657 -0.434,-0.5469 -0.054,-0.332 -0.339,-0.8984 -0.671,-1.2695 -0.786,-0.8672 -1.727,-1.0157 -3.586,-1.0157 -2.731,0.0079 -6.348,2.2149 -6.36,6.9219 0,1.9649 0.383,3.8594 1.871,5.1406 0.918,0.7696 2.028,1.1016 3.844,1.1016 1.898,0 3.266,-0.5 3.93,-1.1406 0.488,-0.4922 0.73,-1.1758 0.758,-1.7696 0,-0.246 0.046,-0.5781 0.382,-0.5976 0.368,0.0312 0.434,0.3828 0.457,0.6641 0.024,0.4101 0.024,1.5351 0.075,2.1875 0.043,0.7148 0.089,0.9375 0.093,1.1328 0.012,0.207 -0.191,0.4023 -0.464,0.4023 -0.61,0.0781 -1.297,0.2227 -2.086,0.3399 -0.957,0.1171 -1.758,0.2148 -3.075,0.2148 -3.148,0 -5.203,-0.8281 -6.757,-2.1875 -2.047,-1.8359 -2.508,-4.2578 -2.508,-5.6719 -0.004,-1.9844 0.554,-4.3359 2.679,-6.1054 1.95,-1.6407 4.418,-2.2344 7.301,-2.2344 1.367,0 2.969,0.1172 3.852,0.4687 0.367,0.125 0.566,0.3321 0.644,0.7032 0.223,0.7226 0.453,2.4531 0.461,2.7343 -0.008,0.2149 -0.097,0.4961 -0.406,0.5274 z m -16.781,0 c -0.282,0.0078 -0.41,-0.2657 -0.426,-0.5469 -0.063,-0.332 -0.344,-0.8984 -0.68,-1.2695 -0.781,-0.8672 -1.726,-1.0157 -3.582,-1.0157 -2.73,0.0079 -6.351,2.2149 -6.359,6.9219 0,1.9649 0.379,3.8594 1.871,5.1406 0.914,0.7696 2.027,1.1016 3.844,1.1016 1.898,0 3.265,-0.5 3.925,-1.1406 0.493,-0.4922 0.739,-1.1758 0.762,-1.7696 0,-0.246 0.043,-0.5781 0.387,-0.5976 0.359,0.0312 0.43,0.3828 0.453,0.6641 0.023,0.4101 0.023,1.5351 0.07,2.1875 0.047,0.7148 0.094,0.9375 0.094,1.1328 0.02,0.207 -0.187,0.4023 -0.465,0.4023 -0.601,0.0781 -1.293,0.2227 -2.082,0.3399 -0.957,0.1171 -1.758,0.2148 -3.078,0.2148 -3.144,0 -5.199,-0.8281 -6.754,-2.1875 -2.051,-1.8359 -2.508,-4.2578 -2.508,-5.6719 0,-1.9844 0.555,-4.3359 2.676,-6.1054 1.949,-1.6407 4.426,-2.2344 7.305,-2.2344 1.367,0 2.965,0.1172 3.848,0.4687 0.371,0.125 0.566,0.3321 0.648,0.7032 0.227,0.7226 0.453,2.4531 0.453,2.7343 -0.004,0.2149 -0.09,0.4961 -0.402,0.5274 z m -19.828,3.2812 c 0,-2.0703 -0.426,-3.8203 -1.719,-4.8945 -1.235,-1.0156 -2.578,-1.3359 -4.465,-1.3359 -1.621,-0.0118 -2.402,0.4375 -2.602,0.7304 -0.113,0.1172 -0.195,0.8594 -0.207,1.3399 -0.023,0.4023 -0.05,1.9531 -0.05,4.0898 v 2.5508 c 0,1.5937 0,3.2617 0.027,3.9453 0.02,0.2148 0,0.1758 0.152,0.2539 0.086,0.0664 0.821,0.1367 1.227,0.125 1.629,0 3.859,-0.2031 5.738,-1.8828 0.895,-0.7734 1.899,-2.3945 1.899,-4.9219 z m 1.312,5.8399 c -2.355,2.3711 -5.933,2.3515 -8.547,2.3515 -1.261,0 -2.773,-0.039 -3.406,-0.039 -0.594,0 -1.93,0.039 -3.023,0.039 -0.293,0 -0.618,-0.0195 -0.649,-0.3515 0.016,-0.293 0.297,-0.3907 0.527,-0.3907 0.297,0 0.661,-0.0195 0.786,-0.0586 0.644,-0.2148 0.711,-0.2812 0.781,-0.9453 0.027,-0.6367 0.027,-1.2031 0.027,-4.2773 v -3.5664 c 0,-1.8633 0,-3.457 -0.097,-4.2969 -0.079,-0.5937 -0.172,-0.8555 -0.489,-0.9258 -0.176,-0.039 -0.394,-0.0586 -0.695,-0.0586 -0.309,0 -0.504,-0.1953 -0.504,-0.3906 0.012,-0.293 0.305,-0.3828 0.574,-0.3828 0.438,0 0.957,0.0195 1.457,0.0508 0.496,0 0.957,0.0195 1.188,0.0195 0.512,0 1.273,-0.0508 2.101,-0.1172 0.836,-0.0508 1.746,-0.1172 2.516,-0.1172 3.902,0 6.164,1.4453 7.145,2.4297 1.218,1.1914 2.339,3.1641 2.339,5.7617 0,2.4532 -0.953,4.1914 -2.031,5.2657 z M 137.91,64.082 c -0.25,0 -0.555,0.0196 -1.14,0.1836 -0.536,0.1485 -0.711,0.5782 -0.907,1.8555 l -1.902,12.5 c -0.09,0.4805 -0.34,0.7734 -0.645,0.793 -0.296,-0.0118 -0.523,-0.2422 -0.699,-0.5977 l -5.472,-11.1211 -5.465,10.9766 c -0.274,0.5547 -0.496,0.7422 -0.797,0.7422 -0.297,-0.0118 -0.516,-0.293 -0.57,-0.6641 l -2.071,-13.2227 c -0.09,-0.6757 -0.316,-1.3984 -0.715,-1.4062 -0.324,-0.0391 -0.457,-0.0391 -0.617,-0.0391 -0.254,0 -0.488,-0.1172 -0.504,-0.3711 0,-0.332 0.336,-0.4023 0.547,-0.4023 0.68,0 1.684,0.0703 2.074,0.0703 0.368,0 1.325,-0.0703 2.211,-0.0703 0.293,0 0.657,0.0391 0.672,0.4023 -0.031,0.2735 -0.265,0.3594 -0.504,0.3711 -0.172,0 -0.347,0.0196 -0.703,0.0899 -0.348,0.0742 -0.504,0.1523 -0.508,0.4258 0,0.3242 0.024,0.5781 0.075,0.9296 l 0.941,7.461 c 0.703,-1.4375 1.754,-3.5938 1.898,-3.9375 0.25,-0.5938 1.911,-3.6719 2.411,-4.6094 0.347,-0.6055 0.539,-1.0625 0.984,-1.1133 0.394,0.0313 0.512,0.3125 0.984,1.2422 l 4.313,8.6602 1.105,-8.3203 c 0.024,-0.1758 0.032,-0.3204 0.032,-0.4297 0.007,-0.2422 -0.028,-0.2344 -0.016,-0.2539 -0.152,-0.0469 -0.34,-0.1368 -0.348,-0.3711 0.024,-0.293 0.285,-0.3907 0.781,-0.4102 0.84,-0.0469 3.809,-0.1367 4.344,-0.1367 0.309,0.0117 0.668,0.0312 0.715,0.4023 -0.019,0.293 -0.289,0.3711 -0.504,0.3711 z m 267.11,113.426 c 0.476,0.453 0.695,0.469 1.449,0.148 1.89,-0.812 3.886,-1.847 4.422,-2.109 0.5,-0.266 0.832,-0.527 0.714,-0.801 -0.128,-0.312 -0.457,-0.215 -0.73,-0.09 -0.445,0.188 -1.227,0.364 -1.887,0.442 -2.867,0.34 -4.668,-1.282 -5.586,-3.41 -1.336,-3.086 0.106,-5.497 1.926,-6.29 1.68,-0.722 3.481,-0.894 6.942,0.997 l 1.918,1.035 c 4.582,2.5 7.55,2.773 10.328,1.562 3.777,-1.629 5.125,-5.957 3.062,-10.722 -0.969,-2.235 -1.933,-3.524 -2.558,-4.317 -0.2,-0.281 -0.379,-0.406 -0.622,-0.301 -0.445,0.196 -1.378,0.762 -4.054,1.922 -0.754,0.324 -0.989,0.547 -0.867,0.821 0.101,0.234 0.351,0.253 0.765,0.07 0.309,-0.129 1.446,-0.418 2.649,-0.086 0.879,0.23 2.336,0.789 3.3,3.016 1.098,2.539 0.293,4.726 -1.765,5.613 -1.582,0.683 -3.125,0.414 -6.516,-1.504 l -1.137,-0.645 c -4.918,-2.812 -7.925,-3.261 -11.187,-1.843 -1.992,0.859 -4.031,2.636 -4.574,5.8 -0.36,2.196 0.164,4.247 0.953,6.075 0.855,1.98 1.765,3.425 3.055,4.617 z m 22.027,13.183 c 5.469,-1.543 6.476,-1.824 7.644,-2.078 1.247,-0.273 1.957,-0.09 2.364,0.653 0.218,0.363 0.386,0.82 0.508,1.25 0.105,0.363 0.234,0.558 0.523,0.48 0.215,-0.07 0.207,-0.371 0.043,-0.949 -0.387,-1.367 -1.133,-3.602 -1.43,-4.649 -0.254,-0.894 -0.742,-3.046 -1.133,-4.414 -0.132,-0.468 -0.285,-0.742 -0.5,-0.683 -0.285,0.09 -0.3,0.324 -0.199,0.683 0.106,0.364 0.153,0.657 0.199,1.114 0.094,1.015 -0.437,1.476 -1.675,1.906 -1.129,0.398 -2.137,0.684 -7.606,2.226 l -6.332,1.797 c -3.492,0.985 -6.332,1.786 -7.922,2.078 -1,0.168 -1.718,0.098 -2.168,-0.933 -0.215,-0.492 -0.511,-1.262 -0.664,-1.801 -0.109,-0.398 -0.269,-0.547 -0.445,-0.496 -0.258,0.066 -0.285,0.391 -0.172,0.789 0.672,2.375 1.422,4.609 1.691,5.59 0.239,0.816 0.774,3.113 1.18,4.559 0.133,0.468 0.309,0.683 0.563,0.613 0.179,-0.047 0.246,-0.223 0.125,-0.664 -0.157,-0.528 -0.203,-0.985 -0.223,-1.328 -0.063,-0.762 0.492,-1.153 1.504,-1.551 1.457,-0.606 4.301,-1.406 7.793,-2.395 z m -11.195,31.75 c 0.343,0.555 0.543,0.645 1.355,0.528 2.039,-0.305 4.238,-0.762 4.824,-0.891 0.551,-0.117 0.942,-0.281 0.899,-0.574 -0.043,-0.344 -0.379,-0.324 -0.68,-0.285 -0.48,0.07 -1.277,0.031 -1.937,-0.059 -2.856,-0.418 -4.168,-2.461 -4.497,-4.754 -0.48,-3.332 1.543,-5.285 3.504,-5.566 1.817,-0.266 3.602,0.047 6.446,2.773 l 1.578,1.516 c 3.769,3.609 6.562,4.644 9.558,4.215 4.075,-0.586 6.504,-4.414 5.77,-9.559 -0.348,-2.402 -0.938,-3.906 -1.34,-4.836 -0.121,-0.32 -0.258,-0.488 -0.516,-0.445 -0.484,0.066 -1.535,0.367 -4.421,0.777 -0.813,0.117 -1.09,0.274 -1.051,0.567 0.039,0.265 0.269,0.343 0.719,0.273 0.332,-0.035 1.503,-0.019 2.582,0.617 0.781,0.457 2.046,1.367 2.39,3.778 0.395,2.738 -0.957,4.629 -3.18,4.953 -1.703,0.242 -3.121,-0.422 -5.89,-3.164 l -0.93,-0.926 c -4.008,-3.988 -6.793,-5.219 -10.308,-4.707 -2.149,0.301 -4.582,1.48 -5.942,4.402 -0.918,2.02 -0.957,4.141 -0.676,6.102 0.317,2.148 0.813,3.769 1.743,5.265 z m 5.015,34.5 c -2.914,-0.175 -3.863,-0.695 -4.097,-1.453 -0.207,-0.644 -0.215,-1.359 -0.2,-1.953 0.016,-0.41 -0.047,-0.64 -0.269,-0.644 -0.305,-0.012 -0.395,0.32 -0.406,0.843 -0.09,2.434 -0.032,3.93 -0.055,4.641 -0.012,0.336 -0.188,2.09 -0.254,4.031 -0.02,0.485 0.012,0.824 0.344,0.836 0.222,0.012 0.308,-0.215 0.32,-0.586 0.02,-0.488 0.078,-1.156 0.242,-1.676 0.34,-0.96 1.43,-1.074 4.68,-0.996 l 22.141,0.446 c 0.75,0.031 1.277,-0.071 1.289,-0.442 0.011,-0.41 -0.461,-0.761 -1.11,-1.425 -0.469,-0.461 -6.363,-6.36 -11.59,-12.012 -2.449,-2.625 -7.656,-7.863 -8.23,-8.52 l 0.004,-0.191 16.773,0.969 c 2.278,0.117 2.981,0.484 3.321,1.39 0.207,0.571 0.171,1.465 0.152,1.989 -0.016,0.449 0.094,0.605 0.316,0.609 0.297,0.016 0.352,-0.395 0.371,-0.953 0.071,-1.942 0.02,-3.742 0.047,-4.531 0.012,-0.411 0.18,-1.825 0.242,-3.661 0.012,-0.488 -0.003,-0.859 -0.308,-0.871 -0.227,-0.008 -0.344,0.211 -0.36,0.66 -0.011,0.375 -0.019,0.676 -0.148,1.118 -0.344,1.035 -1.133,1.308 -3.23,1.269 L 417.25,235.41 c -0.82,-0.031 -1.16,0.102 -1.176,0.445 -0.015,0.411 0.379,0.872 0.781,1.293 2.161,2.438 6.883,7.391 10.594,11.422 3.899,4.211 8.418,8.528 9.11,9.227 l -0.004,0.113 z m 6.887,31.926 c 5.547,1.246 6.566,1.473 7.719,1.813 1.226,0.343 1.746,0.769 1.73,2.035 0.004,0.308 -0.094,0.937 -0.211,1.445 -0.094,0.399 -0.066,0.641 0.188,0.692 0.258,0.058 0.386,-0.18 0.511,-0.727 0.219,-0.984 0.418,-2.051 0.629,-2.965 0.176,-0.957 0.328,-1.805 0.442,-2.312 0.261,-1.172 1.89,-8.434 2.082,-9.118 0.23,-0.679 0.433,-1.246 0.574,-1.519 0.074,-0.176 0.238,-0.371 0.277,-0.555 0.043,-0.179 -0.097,-0.25 -0.277,-0.293 -0.258,-0.054 -0.734,0.028 -2.438,-0.238 -0.375,-0.047 -2,-0.332 -2.453,-0.359 -0.187,-0.004 -0.422,0.019 -0.48,0.273 -0.063,0.258 0.105,0.371 0.433,0.445 0.258,0.055 0.868,0.235 1.262,0.512 0.602,0.406 0.957,0.871 0.77,2.746 -0.067,0.637 -0.856,4.481 -1.024,5.215 -0.039,0.18 -0.164,0.231 -0.418,0.172 l -9.234,-2.078 c -0.258,-0.059 -0.395,-0.125 -0.348,-0.34 0.184,-0.805 1.125,-5 1.391,-5.824 0.266,-0.86 0.5,-1.383 0.941,-1.633 0.348,-0.191 0.563,-0.293 0.606,-0.473 0.035,-0.148 -0.016,-0.273 -0.235,-0.32 -0.218,-0.051 -0.836,-0.035 -2.73,-0.309 -0.742,-0.129 -2.227,-0.347 -2.481,-0.406 -0.292,-0.062 -0.695,-0.156 -0.765,0.176 -0.059,0.254 0.07,0.359 0.254,0.398 0.355,0.118 0.836,0.227 1.285,0.446 0.687,0.347 1.121,0.98 0.961,2.359 -0.082,0.711 -0.86,4.336 -1.055,5.211 -0.039,0.18 -0.195,0.184 -0.418,0.137 l -2.879,-0.653 c -1.242,-0.277 -4.609,-0.996 -5.66,-1.269 -2.5,-0.633 -2.914,-1.34 -2.078,-5.067 0.211,-0.949 0.555,-2.48 1.203,-3.332 0.656,-0.847 1.52,-1.117 3.074,-1.035 0.414,0.016 0.578,-0.023 0.641,-0.277 0.062,-0.293 -0.23,-0.356 -0.598,-0.445 -0.84,-0.184 -3.382,-0.45 -4.156,-0.43 -1.004,0.039 -1.078,0.371 -1.391,1.758 -0.617,2.738 -0.992,4.757 -1.308,6.34 -0.281,1.582 -0.496,2.722 -0.742,3.816 -0.086,0.402 -0.274,1.207 -0.504,2.07 -0.192,0.84 -0.473,1.774 -0.641,2.508 -0.105,0.473 -0.058,0.75 0.203,0.809 0.18,0.043 0.324,-0.078 0.422,-0.516 0.125,-0.547 0.293,-0.973 0.442,-1.285 0.308,-0.695 1.152,-0.699 2.246,-0.606 1.574,0.161 4.457,0.813 7.812,1.563 z m -24.613,28.016 c 1.57,4.617 5.066,7.117 8.422,8.504 2.347,0.968 6.722,1.933 11.136,-0.129 3.309,-1.543 6.051,-4.254 8.18,-9.403 0.891,-2.144 1.277,-3.476 1.726,-5.152 0.375,-1.387 0.52,-2.617 0.84,-3.699 0.125,-0.395 0.012,-0.602 -0.199,-0.691 -0.277,-0.114 -0.73,-0.18 -1.969,-0.61 -1.172,-0.406 -3.054,-1.226 -3.777,-1.441 -0.531,-0.18 -0.84,-0.223 -0.969,0.082 -0.109,0.281 0.141,0.461 0.621,0.664 1.055,0.476 2.082,1.426 2.621,2.664 0.739,1.641 0.559,4.719 -0.757,7.898 -1.246,3.004 -2.821,4.66 -4.832,5.61 -3.356,1.562 -6.911,0.859 -10.262,-0.528 -8.223,-3.398 -9.711,-11.336 -7.801,-15.964 1.274,-3.079 2.391,-4.801 4.555,-5.528 0.894,-0.312 2.09,-0.351 2.762,-0.23 0.593,0.121 0.761,0.113 0.878,-0.16 0.098,-0.247 -0.113,-0.415 -0.39,-0.528 -0.41,-0.172 -3.59,-1 -4.906,-1.144 -0.661,-0.067 -0.891,0 -1.375,0.488 -1.125,1.152 -2.454,3.68 -3.368,5.891 -1.957,4.73 -2.566,9.136 -1.136,13.406 z m 2.773,23.801 c 4.899,2.886 5.797,3.418 6.789,4.086 1.059,0.707 1.418,1.359 1.16,2.164 -0.113,0.41 -0.328,0.843 -0.55,1.23 -0.2,0.32 -0.243,0.555 0.011,0.707 0.196,0.113 0.41,-0.105 0.719,-0.625 0.719,-1.226 1.816,-3.308 2.367,-4.242 0.477,-0.805 1.695,-2.652 2.418,-3.871 0.242,-0.422 0.332,-0.719 0.137,-0.832 -0.254,-0.153 -0.434,0.004 -0.625,0.328 -0.192,0.32 -0.375,0.562 -0.664,0.906 -0.672,0.778 -1.375,0.715 -2.539,0.113 -1.071,-0.543 -1.973,-1.078 -6.871,-3.96 l -5.668,-3.344 c -3.125,-1.84 -5.672,-3.344 -6.985,-4.285 -0.808,-0.614 -1.258,-1.18 -0.816,-2.223 0.203,-0.488 0.555,-1.231 0.844,-1.719 0.203,-0.351 0.203,-0.57 0.043,-0.664 -0.223,-0.137 -0.473,0.067 -0.684,0.418 -1.25,2.125 -2.355,4.211 -2.867,5.086 -0.434,0.734 -1.727,2.715 -2.485,4.004 -0.25,0.418 -0.285,0.703 -0.058,0.836 0.16,0.09 0.332,0.016 0.555,-0.363 0.289,-0.489 0.582,-0.836 0.816,-1.09 0.508,-0.567 1.172,-0.434 2.164,0.015 1.445,0.641 3.992,2.137 7.117,3.981 z m -19.351,22.031 c -0.325,-0.266 -0.391,-0.41 -0.313,-0.688 0.289,-0.777 0.902,-1.718 1.488,-2.449 0.946,-1.164 1.364,-1.449 2.164,-1.668 1.344,-0.363 3.36,-0.129 5.75,1.797 4.137,3.328 3.125,7.031 1.746,8.75 -0.585,0.727 -1.043,1.231 -1.363,1.449 -0.219,0.157 -0.383,0.121 -0.613,-0.062 z m -0.465,5.289 c 4.429,3.562 5.242,4.219 6.129,5.027 0.941,0.856 1.218,1.461 0.648,2.59 -0.125,0.277 -0.496,0.801 -0.824,1.203 -0.258,0.324 -0.34,0.543 -0.137,0.711 0.203,0.16 0.43,0.004 0.777,-0.43 1.247,-1.542 2.629,-3.449 3.129,-4.058 0.789,-0.992 2.664,-3.137 3.391,-4.043 1.477,-1.836 2.875,-3.926 3.062,-6.367 0.106,-1.258 -0.449,-3.625 -2.394,-5.196 -2.16,-1.734 -4.863,-2.421 -9.625,-1.406 -1.172,-5.219 -2.149,-9.316 -2.566,-12.488 -0.383,-2.992 0.378,-4.348 0.64,-4.856 0.203,-0.371 0.383,-0.656 0.567,-0.89 0.191,-0.235 0.199,-0.418 0.05,-0.535 -0.234,-0.188 -0.453,-0.032 -0.738,0.32 l -2.227,2.766 c -1.312,1.628 -1.75,2.48 -1.953,3.562 -0.339,1.793 0.137,4 1.071,7.438 0.664,2.457 1.562,5.39 1.699,6.117 0.058,0.289 -0.059,0.492 -0.219,0.695 l -1.984,2.578 c -0.117,0.145 -0.242,0.184 -0.422,0.047 l -0.406,-0.328 c -2.711,-2.18 -5.012,-4.035 -6.121,-5.164 -0.77,-0.766 -1.266,-1.461 -0.68,-2.426 0.293,-0.484 0.75,-1.172 1.027,-1.523 0.192,-0.231 0.196,-0.422 0.051,-0.539 -0.207,-0.161 -0.453,-0.028 -0.762,0.351 -1.359,1.692 -3.008,3.918 -3.359,4.356 -0.445,0.554 -2.008,2.316 -2.945,3.476 -0.309,0.383 -0.379,0.656 -0.18,0.821 0.144,0.117 0.324,0.07 0.609,-0.278 0.352,-0.433 0.688,-0.738 0.957,-0.957 0.586,-0.488 1.348,-0.117 2.285,0.445 1.336,0.84 3.645,2.696 6.321,4.856 z m -28.356,26.703 c 3.707,4.313 4.387,5.106 5.113,6.063 0.766,1.011 0.934,1.66 0.168,2.664 -0.175,0.254 -0.636,0.695 -1.035,1.035 -0.312,0.265 -0.433,0.472 -0.258,0.668 0.165,0.199 0.415,0.086 0.836,-0.278 1.504,-1.296 3.227,-2.91 4.075,-3.644 0.679,-0.582 2.539,-2.035 3.562,-2.91 0.422,-0.367 0.578,-0.59 0.402,-0.789 -0.167,-0.203 -0.39,-0.114 -0.667,0.129 -0.313,0.273 -0.508,0.39 -0.899,0.625 -0.891,0.519 -1.527,0.226 -2.437,-0.715 -0.84,-0.86 -1.52,-1.657 -5.223,-5.969 l -3.41,-3.973 c -3.531,-4.117 -4.196,-6.554 -3.781,-8.883 0.382,-2.144 1.582,-3.378 2.55,-4.21 1.25,-1.067 3.125,-1.985 5.235,-1.825 2.898,0.219 5.175,2.703 7.683,5.625 l 3.047,3.543 c 3.703,4.317 4.387,5.114 5.11,6.067 0.773,1.015 0.933,1.664 0.167,2.664 -0.183,0.254 -0.636,0.695 -0.949,0.969 -0.312,0.261 -0.433,0.468 -0.261,0.664 0.164,0.199 0.414,0.086 0.808,-0.254 1.449,-1.243 3.164,-2.864 3.192,-2.887 0.343,-0.293 2.203,-1.742 3.312,-2.691 0.395,-0.34 0.547,-0.567 0.375,-0.766 -0.172,-0.199 -0.391,-0.113 -0.73,0.18 -0.313,0.269 -0.504,0.386 -0.895,0.621 -0.891,0.519 -1.531,0.23 -2.441,-0.711 -0.836,-0.86 -1.52,-1.656 -5.219,-5.973 l -2.609,-3.031 c -2.7,-3.152 -5.887,-6.231 -10.024,-6.231 -3.5,0 -5.809,1.438 -7.656,3.02 -1.504,1.297 -4.156,3.719 -4.617,7.371 -0.328,2.543 0.394,5.57 3.922,9.688 z m -16.851,21.27 -4.891,2.695 c -1.906,1.035 -2.777,1.328 -3.676,0.898 -0.605,-0.293 -0.996,-0.586 -1.211,-0.804 -0.218,-0.223 -0.39,-0.293 -0.586,-0.184 -0.222,0.133 -0.195,0.332 0.016,0.691 0.301,0.512 2.641,3.09 2.855,3.313 0.34,0.363 0.551,0.5 0.747,0.383 0.257,-0.153 0.39,-0.664 1.16,-1.203 0.879,-0.645 2.066,-1.426 3.133,-2.051 l 12.777,-7.5 c 1.031,-0.606 1.805,-0.926 2.32,-1.145 0.543,-0.187 0.84,-0.273 0.969,-0.347 0.223,-0.137 0.144,-0.348 -0.141,-0.832 -0.398,-0.676 -1.8,-2.844 -2.293,-3.684 -0.222,-0.309 -0.398,-0.465 -0.593,-0.348 -0.254,0.153 -0.227,0.352 0.027,0.856 l 0.176,0.371 c 0.425,0.879 0.082,2.293 -2.75,4.043 l -4.008,2.484 -7.766,-13.234 c -1.742,-2.969 -3.238,-5.516 -3.894,-7 -0.43,-0.957 -0.657,-1.781 0.238,-2.481 0.418,-0.328 1.09,-0.812 1.566,-1.093 0.36,-0.211 0.461,-0.403 0.368,-0.563 -0.129,-0.222 -0.446,-0.172 -0.801,0.039 -2.129,1.246 -4.106,2.539 -5.008,3.067 -0.742,0.433 -2.832,1.535 -4.121,2.289 -0.422,0.246 -0.594,0.48 -0.461,0.703 0.094,0.164 0.285,0.183 0.672,-0.043 0.48,-0.289 0.906,-0.449 1.238,-0.551 0.719,-0.254 1.328,0.34 1.973,1.219 0.957,1.262 2.453,3.816 4.199,6.785 z M 145.566,388.809 c -0.644,-0.082 -0.839,0.019 -1.257,0.726 -1.047,1.774 -2.063,3.781 -2.336,4.313 -0.254,0.504 -0.368,0.914 -0.11,1.062 0.289,0.172 0.492,-0.097 0.649,-0.355 0.242,-0.414 0.773,-1.016 1.258,-1.469 2.121,-1.957 4.531,-1.703 6.523,-0.523 2.898,1.718 3.148,4.515 2.141,6.226 -0.934,1.57 -2.297,2.77 -6.204,3.277 l -2.167,0.278 c -5.176,0.672 -7.735,2.195 -9.278,4.804 -2.097,3.536 -0.644,7.832 3.828,10.485 2.09,1.238 3.633,1.719 4.602,1.984 0.324,0.11 0.547,0.11 0.676,-0.117 0.25,-0.418 0.675,-1.426 2.164,-3.934 0.414,-0.707 0.472,-1.027 0.215,-1.175 -0.223,-0.133 -0.434,0.004 -0.665,0.382 -0.171,0.293 -0.921,1.192 -2.093,1.633 -0.848,0.321 -2.352,0.739 -4.442,-0.504 -2.382,-1.41 -3.007,-3.652 -1.863,-5.582 0.879,-1.476 2.285,-2.168 6.152,-2.609 l 1.305,-0.145 c 5.625,-0.617 8.324,-2.019 10.137,-5.07 1.101,-1.871 1.715,-4.508 0.293,-7.394 -0.996,-1.977 -2.629,-3.336 -4.332,-4.352 -1.867,-1.102 -3.449,-1.738 -5.196,-1.941 z m -19.421,-0.246 c 0.14,0.117 0.101,0.226 0.003,0.289 l -8.394,5.128 c -0.121,0.09 -0.27,0.215 -0.356,0.145 -0.089,-0.074 -0.031,-0.262 0.036,-0.406 l 3.046,-9.336 c 0.067,-0.141 0.165,-0.203 0.282,-0.11 z m -4.801,-6.219 c -0.149,-0.117 -0.16,-0.227 -0.078,-0.446 l 1.757,-5.437 c 0.29,-0.965 0.704,-1.785 0.981,-2.137 0.422,-0.527 0.984,-0.691 1.894,0.031 l 0.442,0.348 c 0.348,0.277 0.48,0.293 0.625,0.117 0.183,-0.234 0.055,-0.437 -0.266,-0.691 -0.937,-0.746 -2.265,-1.66 -3.168,-2.383 -0.324,-0.258 -1.859,-1.629 -3.386,-2.84 -0.375,-0.304 -0.598,-0.386 -0.786,-0.152 -0.14,0.176 -0.066,0.328 0.168,0.512 0.258,0.211 0.649,0.57 0.86,0.781 1.207,1.25 0.965,2.687 0.383,4.617 l -7.309,24.211 c -0.32,1.129 -0.402,1.594 -0.109,1.824 0.261,0.207 0.648,0.086 1.472,-0.351 1.989,-1.051 16.176,-9.246 21.59,-12.2 3.215,-1.742 4.387,-1.48 5.117,-1.132 0.508,0.257 0.973,0.582 1.321,0.863 0.234,0.187 0.406,0.273 0.566,0.07 0.191,-0.234 -0.027,-0.504 -1.109,-1.367 -1.055,-0.84 -3.188,-2.539 -5.571,-4.348 -0.55,-0.39 -0.898,-0.671 -1.062,-0.468 -0.145,0.175 -0.071,0.328 0.199,0.593 0.156,0.219 0.148,0.649 -0.273,0.883 l -7.286,4.332 c -0.171,0.098 -0.308,0.086 -0.457,-0.031 z m -28.3948,-4.59 -3.7226,-4.152 c -1.4336,-1.629 -1.9102,-2.411 -1.6953,-3.383 0.1445,-0.653 0.3437,-1.098 0.5117,-1.364 0.164,-0.257 0.1992,-0.437 0.0429,-0.601 -0.1796,-0.191 -0.3671,-0.121 -0.664,0.164 -0.4414,0.41 -2.4219,3.266 -2.586,3.523 -0.2812,0.418 -0.3632,0.653 -0.2109,0.813 0.2031,0.219 0.7305,0.234 1.4297,0.863 0.8242,0.707 1.8555,1.696 2.707,2.594 l 10.1641,10.762 c 0.8242,0.867 1.3082,1.543 1.6402,2 0.301,0.488 0.454,0.757 0.555,0.867 0.18,0.187 0.367,0.062 0.777,-0.324 0.575,-0.536 2.372,-2.391 3.079,-3.063 0.242,-0.281 0.355,-0.488 0.199,-0.652 -0.203,-0.215 -0.391,-0.141 -0.824,0.215 l -0.325,0.254 c -0.757,0.613 -2.211,0.601 -4.5543,-1.77 l -3.3164,-3.348 11.1487,-10.527 c 2.5,-2.363 4.648,-4.395 5.949,-5.363 0.832,-0.633 1.586,-1.035 2.465,-0.321 0.414,0.329 1.035,0.875 1.422,1.278 0.281,0.304 0.488,0.363 0.625,0.23 0.195,-0.179 0.066,-0.472 -0.215,-0.765 -1.696,-1.797 -3.395,-3.434 -4.113,-4.196 -0.59,-0.625 -2.129,-2.418 -3.157,-3.504 -0.332,-0.351 -0.593,-0.464 -0.785,-0.285 -0.137,0.129 -0.117,0.313 0.192,0.641 0.39,0.406 0.64,0.781 0.82,1.078 0.398,0.648 -0.039,1.379 -0.75,2.203 -1.02,1.215 -3.164,3.242 -5.664,5.606 z m -9.2187,-25.188 c -4.5938,3.356 -5.4414,3.973 -6.4492,4.622 -1.0704,0.683 -1.8086,0.757 -2.4415,0.203 -0.3359,-0.266 -0.6484,-0.637 -0.914,-1 -0.2227,-0.301 -0.4141,-0.438 -0.6602,-0.262 -0.1797,0.129 -0.0625,0.418 0.2891,0.902 0.8398,1.149 2.3203,2.989 2.9609,3.864 0.5508,0.753 1.7578,2.601 2.5938,3.753 0.289,0.391 0.5234,0.586 0.707,0.457 0.2422,-0.179 0.168,-0.402 -0.0508,-0.707 -0.2187,-0.3 -0.3672,-0.566 -0.5703,-0.972 -0.4453,-0.926 -0.1094,-1.543 0.9063,-2.371 0.9257,-0.766 1.7695,-1.387 6.3632,-4.739 l 5.3165,-3.878 c 2.9375,-2.141 5.3164,-3.883 6.7109,-4.708 0.8789,-0.503 1.5738,-0.691 2.3598,0.125 0.371,0.383 0.918,1 1.25,1.458 0.238,0.332 0.437,0.414 0.593,0.304 0.211,-0.156 0.121,-0.461 -0.117,-0.793 -1.457,-1.992 -2.9374,-3.836 -3.535,-4.648 -0.5078,-0.696 -1.8008,-2.668 -2.6875,-3.875 -0.2852,-0.395 -0.5313,-0.535 -0.7422,-0.383 -0.1485,0.109 -0.1524,0.297 0.1133,0.656 0.3281,0.457 0.5351,0.86 0.6718,1.18 0.3204,0.691 -0.0586,1.25 -0.8711,1.976 -1.164,1.079 -3.5468,2.821 -6.4804,4.961 z m 0.8593,-30.89 c -0.5273,-0.391 -0.7421,-0.399 -1.4609,0.008 -1.7891,1.015 -3.6641,2.257 -4.168,2.582 -0.4687,0.308 -0.7734,0.613 -0.625,0.871 0.1719,0.293 0.4766,0.16 0.7383,0.008 0.4219,-0.239 1.1797,-0.497 1.8242,-0.641 2.8125,-0.656 4.7852,0.766 5.9297,2.781 1.6563,2.93 0.4883,5.488 -1.2304,6.465 -1.5977,0.906 -3.3711,1.27 -7.0196,-0.234 l -2.0195,-0.832 c -4.832,-1.985 -7.8086,-1.93 -10.4453,-0.438 -3.5742,2.035 -4.4492,6.484 -1.8789,11.008 1.1992,2.117 2.2969,3.297 3.0078,4.012 0.2344,0.254 0.4219,0.363 0.6484,0.234 0.4258,-0.238 1.293,-0.91 3.8282,-2.344 0.7187,-0.41 0.9218,-0.652 0.7773,-0.914 -0.1328,-0.23 -0.3828,-0.215 -0.7734,0.004 -0.293,0.168 -1.3907,0.578 -2.625,0.379 -0.8946,-0.145 -2.4063,-0.527 -3.6094,-2.645 -1.3672,-2.406 -0.8008,-4.667 1.1523,-5.769 1.5,-0.852 3.0625,-0.75 6.6407,0.785 l 1.1992,0.524 c 5.1953,2.253 8.2343,2.378 11.3281,0.625 1.8867,-1.071 3.7227,-3.063 3.9219,-6.27 0.1172,-2.219 -0.625,-4.211 -1.6016,-5.93 -1.0742,-1.886 -2.1328,-3.222 -3.5391,-4.269 z M 62.5703,306.117 c 0.3789,-0.152 0.543,-0.133 0.7461,0.074 0.5274,0.633 1.0352,1.641 1.3711,2.516 0.543,1.395 0.5781,1.902 0.3672,2.703 -0.3633,1.344 -1.5781,2.981 -4.4414,4.082 -4.9492,1.918 -7.6485,-0.808 -8.4453,-2.863 -0.336,-0.875 -0.5469,-1.516 -0.5742,-1.906 -0.0274,-0.274 0.0859,-0.395 0.3632,-0.504 z m -4.3515,-3.051 c -5.3047,2.051 -6.2813,2.426 -7.4297,2.793 -1.2071,0.387 -1.875,0.321 -2.5664,-0.73 -0.1758,-0.258 -0.4414,-0.836 -0.6289,-1.324 -0.1485,-0.383 -0.3008,-0.567 -0.543,-0.469 -0.2461,0.09 -0.2188,0.363 -0.0195,0.887 0.7187,1.851 1.6718,4.004 1.9531,4.742 0.4609,1.18 1.3828,3.875 1.7969,4.957 0.8515,2.195 1.9609,4.457 3.9843,5.84 1.0391,0.722 3.3594,1.429 5.6992,0.519 2.5821,-0.996 4.5352,-2.992 6.0352,-7.625 5.1055,1.598 9.1445,2.805 12.0977,4.024 2.7812,1.172 3.5781,2.508 3.8867,2.992 0.2148,0.355 0.375,0.66 0.4844,0.937 0.1093,0.278 0.2617,0.375 0.4414,0.309 0.2773,-0.109 0.25,-0.375 0.0898,-0.797 l -1.2812,-3.316 c -0.754,-1.953 -1.2657,-2.758 -2.1055,-3.477 -1.3828,-1.191 -3.5352,-1.879 -6.9766,-2.797 -2.457,-0.648 -5.4531,-1.343 -6.1562,-1.59 -0.2696,-0.093 -0.3867,-0.289 -0.4805,-0.535 l -1.2461,-3.008 c -0.0703,-0.175 -0.0391,-0.304 0.1719,-0.39 l 0.4883,-0.184 c 3.2461,-1.254 6,-2.32 7.5351,-2.715 1.0547,-0.285 1.9024,-0.371 2.4453,0.621 0.2735,0.497 0.6368,1.235 0.8008,1.653 0.1055,0.281 0.2695,0.383 0.4375,0.312 0.2461,-0.097 0.2539,-0.379 0.086,-0.832 -0.7891,-2.023 -1.8868,-4.566 -2.0899,-5.09 -0.2578,-0.66 -1.0039,-2.898 -1.543,-4.296 -0.1796,-0.454 -0.3711,-0.661 -0.6171,-0.563 -0.1758,0.07 -0.2266,0.246 -0.0625,0.664 0.1992,0.527 0.2929,0.973 0.3476,1.309 0.125,0.754 -0.5742,1.226 -1.5351,1.758 -1.3946,0.742 -4.1485,1.808 -7.3633,3.046 z m -6.9336,-26.925 c -5.5625,1.199 -6.5821,1.418 -7.7696,1.597 -1.2578,0.192 -1.9101,0.024 -2.4218,-1.129 -0.1368,-0.273 -0.3086,-0.886 -0.4219,-1.398 -0.086,-0.406 -0.2031,-0.606 -0.4571,-0.555 -0.2578,0.059 -0.2734,0.328 -0.1562,0.875 0.2109,0.992 0.4727,2.043 0.6719,2.953 0.2422,0.95 0.457,1.778 0.5664,2.293 0.25,1.172 1.8164,8.45 1.9297,9.153 0.0742,0.711 0.1289,1.308 0.1172,1.617 0.0039,0.191 -0.0586,0.433 -0.0196,0.621 0.0391,0.18 0.1914,0.184 0.3789,0.145 0.2539,-0.051 0.6524,-0.333 2.3125,-0.801 0.3555,-0.117 1.9532,-0.535 2.375,-0.703 0.1758,-0.079 0.3789,-0.196 0.3203,-0.454 -0.0546,-0.253 -0.25,-0.289 -0.582,-0.218 -0.2539,0.058 -0.8828,0.156 -1.3594,0.062 -0.7148,-0.113 -1.2343,-0.386 -1.8476,-2.164 -0.2031,-0.609 -1.1016,-4.433 -1.2617,-5.164 -0.0391,-0.187 0.0546,-0.277 0.3125,-0.332 l 9.2539,-1.992 c 0.2539,-0.055 0.4062,-0.051 0.4531,0.172 0.1758,0.804 1.082,5.008 1.1875,5.867 0.1133,0.894 0.1211,1.465 -0.168,1.871 -0.2422,0.32 -0.3945,0.508 -0.3554,0.688 0.0312,0.148 0.1289,0.238 0.3476,0.195 0.2188,-0.047 0.7774,-0.32 2.6094,-0.867 0.7265,-0.192 2.164,-0.618 2.4219,-0.672 0.289,-0.063 0.6914,-0.149 0.6211,-0.477 -0.0547,-0.258 -0.2149,-0.304 -0.4024,-0.258 -0.3711,0.039 -0.8437,0.141 -1.3476,0.129 -0.7696,-0.023 -1.4258,-0.414 -1.8672,-1.734 -0.2188,-0.68 -1.0313,-4.293 -1.2227,-5.172 -0.0391,-0.184 0.1016,-0.25 0.3164,-0.301 l 2.8906,-0.617 c 1.2461,-0.269 4.5977,-1.027 5.668,-1.219 2.5391,-0.472 3.2149,-0.004 4.0195,3.727 0.2032,0.953 0.5313,2.484 0.2969,3.531 -0.2344,1.043 -0.9062,1.649 -2.3515,2.231 -0.3868,0.156 -0.5196,0.265 -0.4649,0.519 0.0703,0.293 0.3555,0.227 0.7227,0.149 0.8398,-0.18 3.2656,-1.004 3.9609,-1.348 0.8945,-0.457 0.8242,-0.789 0.5234,-2.176 -0.5898,-2.746 -1.0976,-4.742 -1.4687,-6.305 -0.4063,-1.558 -0.6914,-2.683 -0.9258,-3.785 -0.0898,-0.398 -0.2578,-1.203 -0.4101,-2.09 -0.1875,-0.839 -0.3125,-1.804 -0.4727,-2.539 -0.1016,-0.476 -0.2656,-0.707 -0.5234,-0.652 -0.1797,0.039 -0.2579,0.211 -0.168,0.649 0.1172,0.546 0.1445,1 0.1406,1.347 0.0078,0.762 -0.7539,1.117 -1.7851,1.496 -1.5,0.512 -4.3868,1.133 -7.7539,1.856 z M 40.707,243.047 c -2.1054,-0.727 -2.5586,-1.336 -3.0156,-2.656 -0.1875,-0.551 -0.2266,-1.149 -0.2383,-1.446 -0.0273,-0.343 -0.1445,-0.445 -0.3672,-0.429 -0.3007,0.019 -0.3086,0.429 -0.2734,0.992 0.125,1.976 0.375,4.101 0.4531,5.402 0.0625,0.934 0.0625,2.735 0.1875,4.602 0.0274,0.449 0.125,0.855 0.3907,0.84 0.2578,-0.02 0.3203,-0.25 0.2968,-0.586 -0.0351,-0.594 -0.0351,-1.157 0.168,-1.469 0.168,-0.274 0.4219,-0.406 0.7578,-0.426 0.4883,-0.031 1.5547,0.238 2.9297,0.676 l 17.3594,5.34 0.0078,0.144 c -4.0039,1.867 -15.711,7.492 -18.1172,8.543 -0.4727,0.219 -1.0234,0.403 -1.3594,0.422 -0.2969,0.02 -0.6094,-0.105 -0.7422,-0.437 -0.1757,-0.442 -0.2461,-0.996 -0.2812,-1.481 -0.0195,-0.336 -0.0781,-0.633 -0.336,-0.613 -0.3007,0.012 -0.3554,0.355 -0.3085,1.062 0.121,1.871 0.332,3.43 0.3593,3.911 0.043,0.636 0.043,2.398 0.1133,3.523 0.0352,0.48 0.1289,0.773 0.3906,0.762 0.2578,-0.016 0.3164,-0.246 0.293,-0.621 -0.0195,-0.372 -0.0742,-1.153 0.332,-1.856 0.3047,-0.508 0.9024,-1.109 3.2266,-2.266 3.418,-1.679 5.3672,-2.816 9.832,-5.128 5.2969,-2.739 9.2578,-4.754 11.0664,-5.692 2.1055,-1.109 2.6875,-1.371 2.6524,-1.894 -0.0274,-0.485 -0.5664,-0.676 -2.3633,-1.274 z m 8.0039,-16.789 c -5.6757,-0.36 -6.7187,-0.418 -7.9101,-0.574 -1.2617,-0.157 -1.875,-0.567 -2.0078,-1.399 -0.086,-0.418 -0.0899,-0.906 -0.0625,-1.355 0.0234,-0.371 -0.0391,-0.594 -0.336,-0.617 -0.2265,-0.016 -0.3164,0.273 -0.3593,0.871 -0.086,1.414 -0.125,3.777 -0.1914,4.863 -0.0625,0.926 -0.3086,3.125 -0.4024,4.547 -0.0312,0.48 0.0274,0.789 0.2539,0.804 0.2969,0.02 0.3867,-0.199 0.4102,-0.578 0.0195,-0.371 0.0781,-0.668 0.1797,-1.109 0.25,-1 0.9062,-1.262 2.2187,-1.242 1.1953,0 2.2383,0.058 7.9141,0.418 l 6.5703,0.422 c 3.625,0.222 6.5703,0.41 8.168,0.664 1,0.175 1.6523,0.476 1.7304,1.605 0.043,0.527 0.0664,1.352 0.0313,1.91 -0.0235,0.414 0.0703,0.606 0.2617,0.621 0.2617,0.012 0.3906,-0.281 0.4141,-0.687 0.1601,-2.461 0.1953,-4.817 0.2617,-5.832 0.0508,-0.86 0.3125,-3.203 0.4101,-4.699 0.0274,-0.477 -0.0625,-0.75 -0.3281,-0.762 -0.1836,-0.02 -0.3086,0.129 -0.3359,0.578 -0.0352,0.555 -0.1407,0.996 -0.2344,1.328 -0.1953,0.742 -0.8438,0.926 -1.9336,0.969 -1.582,0.086 -4.5273,-0.102 -8.1523,-0.324 z M 66.7578,192.82 c 2.832,0.696 3.6758,1.379 3.7735,2.168 0.082,0.664 -0.0352,1.367 -0.1602,1.953 -0.0898,0.403 -0.0703,0.637 0.1562,0.688 0.2891,0.055 0.4336,-0.258 0.5469,-0.766 0.5235,-2.371 0.7305,-3.855 0.8828,-4.55 0.0743,-0.333 0.5625,-2.02 0.9766,-3.926 0.1016,-0.465 0.1445,-0.809 -0.1914,-0.879 -0.2188,-0.047 -0.3399,0.156 -0.418,0.519 -0.1015,0.477 -0.2851,1.121 -0.5429,1.602 -0.5,0.887 -1.5899,0.801 -4.7774,0.144 l -21.6914,-4.421 c -0.7305,-0.157 -1.2695,-0.157 -1.3477,0.203 -0.0859,0.402 0.3125,0.832 0.836,1.601 0.375,0.539 5.1094,7.403 9.2383,13.899 1.9375,3.027 6.1172,9.109 6.5664,9.863 l -0.043,0.176 -16.3203,-3.965 c -2.2188,-0.52 -2.8399,-1.008 -3.0117,-1.965 -0.0977,-0.594 0.0937,-1.465 0.2031,-1.98 0.0977,-0.442 0.0234,-0.606 -0.1992,-0.657 -0.293,-0.066 -0.4141,0.332 -0.5352,0.879 -0.4179,1.895 -0.6953,3.672 -0.8594,4.434 -0.0937,0.414 -0.5039,1.769 -0.8984,3.566 -0.1016,0.477 -0.1484,0.848 0.1445,0.907 0.2188,0.05 0.3789,-0.145 0.4727,-0.586 0.082,-0.36 0.1445,-0.653 0.3516,-1.063 0.5156,-0.969 1.3515,-1.086 3.3984,-0.676 l 23.1367,4.66 c 0.8008,0.176 1.1602,0.098 1.2344,-0.226 0.0898,-0.41 -0.2149,-0.938 -0.5313,-1.426 -1.6836,-2.773 -5.4453,-8.504 -8.3671,-13.125 -3.0782,-4.851 -6.75,-9.902 -7.3008,-10.711 l 0.0234,-0.109 z m 1.4258,-38.211 c -5.2227,-2.238 -6.1875,-2.656 -7.2578,-3.195 -1.1406,-0.566 -1.5703,-1.082 -1.3281,-2.312 0.0507,-0.305 0.2656,-0.911 0.4765,-1.387 0.1602,-0.379 0.1797,-0.617 -0.0625,-0.711 -0.2422,-0.109 -0.414,0.094 -0.6328,0.625 -0.7812,1.812 -1.6055,4.019 -2.0508,5.055 -0.3515,0.82 -1.3789,2.949 -1.914,4.179 -0.2188,0.52 -0.2539,0.793 -0.0118,0.891 0.2383,0.105 0.3985,-0.07 0.5469,-0.418 0.1602,-0.375 0.2813,-0.57 0.5235,-0.949 0.5742,-0.86 1.2773,-0.879 2.5078,-0.43 1.125,0.398 2.0937,0.809 7.3164,3.047 l 4.8125,2.059 c 4.9844,2.148 6.6562,4.042 7.3047,6.308 0.6093,2.102 0.0664,3.731 -0.4375,4.902 -0.6407,1.516 -1.9219,3.165 -3.8828,3.946 -2.7032,1.086 -5.8399,-0.133 -9.375,-1.66 l -4.3008,-1.836 c -5.2227,-2.246 -6.1914,-2.657 -7.2578,-3.192 -1.1368,-0.578 -1.5664,-1.086 -1.3243,-2.316 0.0508,-0.313 0.2618,-0.906 0.4258,-1.289 0.1602,-0.371 0.1797,-0.613 -0.0586,-0.711 -0.2383,-0.11 -0.4101,0.105 -0.6211,0.594 -0.7461,1.757 -1.5703,3.964 -1.5859,3.996 -0.1797,0.418 -1.2109,2.539 -1.7813,3.867 -0.2109,0.476 -0.246,0.75 0,0.848 0.2383,0.109 0.3946,-0.067 0.5704,-0.477 0.1601,-0.383 0.289,-0.578 0.5312,-0.957 0.5664,-0.852 1.2695,-0.879 2.5039,-0.43 1.1289,0.399 2.0899,0.821 7.3164,3.055 l 3.6758,1.574 c 3.8203,1.641 8.0313,2.996 11.7461,1.172 3.1406,-1.543 4.582,-3.859 5.5391,-6.086 0.7812,-1.824 2.0898,-5.164 0.8984,-8.652 -0.832,-2.43 -2.8125,-4.824 -7.7969,-6.961 l -5.0156,-2.149"
         style="fill:#231f20;fill-opacity:1;fill-rule:nonzero;stroke:none"
         id="path275" />
    </g>
  </g>
</svg>
